<svg width="310" height="158" viewBox="0 0 310 158" fill="none" xmlns="http://www.w3.org/2000/svg">
<path d="M78.2343 71.2739C78.2343 71.2739 69.4552 71.2739 71.5979 66.3636C73.7406 61.4532 81.121 63.6852 81.121 63.6852C81.121 63.6852 82.1923 59.4593 87.2515 57.7035C92.3404 55.9477 93.9474 59.5486 96.2091 55.5608C98.4709 51.573 102.131 51.5432 105.792 50.1148C109.452 48.6863 117.368 46.9603 116.892 50.2041C116.416 53.4776 118.291 54.8466 118.053 56.275C117.785 57.7035 113.827 58.0606 114.363 59.6081C114.898 61.1556 121.148 62.7329 121.802 59.8164C122.427 56.9 122.963 53.0908 128.082 55.9774C133.2 58.8641 135.611 62.9114 140.313 61.3639C145.015 59.7867 145.342 57.1381 147.217 59.8462C149.092 62.5543 144.509 66.4826 149.211 67.5837C153.913 68.6848 152.842 64.1316 156.324 64.3697C159.776 64.6078 157.901 63.6257 161.442 65.6791C164.984 67.7623 163.942 69.4883 167.424 68.3575C170.906 67.2266 175.667 70.5894 174.09 72.4643C172.513 74.2797 78.2343 71.2739 78.2343 71.2739Z" fill="white"/>
<path d="M171.888 85.5586C171.888 85.5586 167.603 85.5586 168.644 83.6242C169.686 81.6898 173.287 82.5826 173.287 82.5826C173.287 82.5826 173.793 80.9161 176.292 80.2018C178.792 79.5173 179.566 80.9458 180.667 79.3686C181.768 77.7913 181.857 76.4521 183.643 75.8867C185.429 75.3212 187.304 75.8867 187.72 77.1068C188.226 78.5353 187.958 78.7436 187.839 79.3388C187.72 79.9042 187.244 80.3804 187.512 80.9756C187.78 81.5708 192.869 82.2255 193.196 81.0649C193.494 79.9042 193.761 78.4162 196.261 79.5471C198.761 80.678 199.951 82.285 202.243 81.6898C204.534 81.0649 204.713 80.0233 205.635 81.0946C206.558 82.166 204.296 83.7135 206.618 84.1599C208.939 84.6063 208.403 82.7909 210.099 82.8802C211.796 82.9695 210.873 82.5826 212.599 83.4159C214.325 84.2491 213.819 84.9336 215.516 84.4872C217.212 84.0408 219.533 85.38 218.789 86.124C217.986 86.7787 171.888 85.5586 171.888 85.5586Z" fill="white"/>
<path fill-rule="evenodd" clip-rule="evenodd" d="M164.597 70.6787L219.652 93.4151L214.563 96.0042L200.16 91.5998L156.83 71.6906L164.597 70.6787Z" fill="#DEE2F0"/>
<path d="M177.453 30.3841C177.453 30.3841 174.269 30.3841 175.043 28.9259C175.816 27.4676 178.495 28.1521 178.495 28.1521C178.495 28.1521 178.882 26.9022 180.727 26.3963C182.572 25.8904 183.167 26.932 184 25.7713C184.834 24.581 184.893 23.5989 186.202 23.1822C187.542 22.7656 188.94 23.1822 189.238 24.1048C189.595 25.1762 189.417 25.3249 189.327 25.7416C189.238 26.1582 188.881 26.5153 189.089 26.9617C189.297 27.4081 193.077 27.8843 193.315 27.0213C193.553 26.1582 193.732 25.0274 195.607 25.8904C197.481 26.7534 198.344 27.9438 200.041 27.4676C201.737 26.9915 201.856 26.2177 202.57 27.0213C203.285 27.8248 201.588 28.9854 203.285 29.283C205.011 29.6103 204.594 28.2712 205.874 28.3307C207.153 28.3902 206.439 28.1224 207.749 28.7176C209.028 29.3425 208.671 29.8484 209.921 29.4913C211.171 29.164 212.927 30.146 212.361 30.7115C211.766 31.2471 177.453 30.3841 177.453 30.3841Z" fill="white"/>
<path d="M77.9069 94.7246C77.9069 94.7246 74.8119 92.7009 73.0858 91.1831C71.3598 89.6654 69.0385 90.826 69.0385 90.826C69.0385 90.826 65.0805 91.0343 65.3483 94.0103C65.6162 96.9863 77.9069 94.7246 77.9069 94.7246Z" fill="#DEE2F0"/>
<path d="M111.208 83.029C111.208 83.029 111.982 81.8386 113.202 81.9874C114.422 82.1362 114.809 82.6719 114.809 82.6719C114.809 82.6719 115.88 82.4933 116.267 83.0588C116.654 83.5944 116.595 84.9039 115.851 85.1717C115.107 85.4693 111.208 83.029 111.208 83.029Z" fill="#CACFE2"/>
<path d="M114.541 84.4872C114.541 84.4872 117.339 84.4575 120.315 86.3026C123.29 88.1774 123.975 94.6948 123.975 94.6948H121.892L114.541 84.4872Z" fill="#CACFE2"/>
<path d="M96.7449 83.3266C96.7449 83.3266 96.9234 82.9695 97.5781 82.7314C98.2329 82.5231 99.5721 83.029 99.5721 83.029L97.965 83.7432L96.7449 83.3266Z" fill="#8798C5"/>
<path d="M79.5437 95.1412C79.5437 95.1412 80.1687 90.0523 85.1385 85.9752C90.1084 81.8982 98.2923 83.3564 98.2923 83.3564C98.2923 83.3564 95.1973 84.8741 93.501 87.612C91.8047 90.3499 90.525 95.171 90.525 95.171H79.5437V95.1412Z" fill="#DEE2F0"/>
<path d="M104.839 82.0172C105.822 81.8981 107.577 82.3445 108.619 82.166C107.339 81.6005 105.822 81.1244 105.822 81.1244C105.822 81.1244 104.393 80.9458 101.923 81.5708C99.4529 82.1957 95.2271 84.6658 92.2213 87.7906C89.2454 90.9153 88.8287 95.0817 88.8287 95.0817L91.8345 95.1412C92.1321 93.802 92.9951 91.1236 95.1973 88.237C98.3221 84.1301 103.381 82.166 104.839 82.0172Z" fill="#CACFE2"/>
<path d="M110.226 83.3266C110.137 82.9695 109.452 82.5529 108.619 82.166C107.577 82.3445 105.822 81.8982 104.839 82.0172C103.381 82.166 98.3221 84.1301 95.1973 88.237C92.9653 91.1236 92.1321 93.802 91.8345 95.1412L104.869 95.3793C104.869 95.3793 105.464 93.3854 106.536 89.5166C107.548 85.6181 110.404 84.2194 110.226 83.3266Z" fill="#DEE2F0"/>
<path d="M108.917 81.4518L110.375 81.541C110.375 81.541 110.047 78.8031 109.274 77.1366C108.5 75.4701 107.667 73.0595 104.691 73.1786C103.411 73.2381 102.637 73.7142 102.191 74.2201C102.459 74.4285 102.786 74.6963 103.084 75.0237C103.857 75.7974 108.202 79.6067 108.202 79.6067C108.202 79.6067 107.696 79.2793 106.298 78.5651C105.226 78.0294 102.667 76.4224 101.506 75.6784C101.506 75.6784 100.852 76.0355 100.465 76.6307C101.596 77.3449 103.322 78.4163 104.274 78.9817C105.405 79.6364 107.577 80.678 108.917 81.4518Z" fill="#DEE2F0"/>
<path d="M100.227 77.9996C100.673 79.3388 102.786 79.9042 104.274 80.4994C105.762 81.0946 106.298 81.2732 106.298 81.2732L108.917 81.4518C107.577 80.678 105.405 79.6364 104.274 78.9817C103.292 78.4163 101.596 77.3449 100.465 76.6307C100.227 77.0176 100.078 77.4937 100.227 77.9996Z" fill="#CACFE2"/>
<path d="M108.202 79.6364C108.202 79.6364 103.857 75.8569 103.084 75.0534C102.756 74.7261 102.459 74.4582 102.191 74.2499C101.625 74.9046 101.536 75.6189 101.536 75.7081C102.697 76.4521 105.256 78.0592 106.327 78.5948C107.696 79.3091 108.202 79.6364 108.202 79.6364Z" fill="#CACFE2"/>
<path d="M110.464 81.0649C108.798 79.5769 106.774 79.4281 106.774 79.4281C106.774 79.4281 106.119 79.2793 105.881 79.9042C105.851 79.9638 105.851 79.9935 105.851 80.053C106.417 80.1721 107.637 80.4399 108.351 80.7673C109.363 81.2137 109.809 81.8684 109.809 81.8684C109.809 81.8684 108.649 81.0649 107.042 80.8268C106.595 80.7673 106.298 80.7078 106.03 80.678H106.06C106.06 80.678 104.482 80.6185 104.244 82.3743C104.185 82.8207 104.244 83.1778 104.334 83.4754C105.107 83.5349 106.357 83.5945 107.22 83.5052C108.53 83.3564 109.095 83.2373 109.422 83.4754C109.512 83.5349 109.512 83.6242 109.422 83.7135C109.72 83.773 111.595 83.3266 111.595 83.3266C111.595 83.3266 111.565 82.0469 110.464 81.0649Z" fill="#DEE2F0"/>
<path d="M109.75 81.8684C109.75 81.8684 109.303 81.2434 108.292 80.7673C107.548 80.4399 106.357 80.1721 105.792 80.053C105.703 80.4399 105.911 80.6185 106 80.678C106.238 80.7078 106.566 80.7673 107.012 80.8268C108.619 81.0649 109.75 81.8684 109.75 81.8684Z" fill="#CACFE2"/>
<path d="M109.393 83.4754C109.065 83.2373 108.5 83.3564 107.19 83.5052C106.327 83.5944 105.107 83.5349 104.304 83.4754C104.572 84.2789 105.286 84.4872 105.286 84.4872C105.286 84.4872 105.197 84.9931 105.762 85.2312C106.327 85.4693 107.25 85.3503 107.875 84.6956C108.53 84.0706 109.095 83.6539 109.393 83.7135C109.452 83.6242 109.482 83.5349 109.393 83.4754Z" fill="#CACFE2"/>
<path d="M107.875 88.5941C107.071 90.2904 107.012 93.921 107.012 95.2602L123.052 94.427C123.052 94.427 121.118 90.5582 118.588 87.1954C116.059 83.8623 112.101 83.0885 111.238 83.029C110.434 82.9695 109.393 83.6837 109.244 83.8028C109.661 83.654 109.928 83.5944 109.928 83.5944C109.928 83.5944 108.857 86.5109 107.875 88.5941Z" fill="#DEE2F0"/>
<path d="M107.875 88.5941C108.857 86.5109 109.899 83.5944 109.899 83.5944C109.899 83.5944 109.631 83.6837 109.214 83.8027L109.184 83.8325C109.184 83.8325 108.678 85.0229 106.506 87.8501C104.482 90.4987 103.649 94.8436 103.56 95.3793L103.887 95.409L106.982 95.2602C107.012 93.921 107.071 90.2904 107.875 88.5941Z" fill="#CACFE2"/>
<path fill-rule="evenodd" clip-rule="evenodd" d="M109.006 84.2194C109.006 84.2194 108.768 83.5052 109.363 83.029C109.988 82.5529 110.732 82.2255 111.476 82.6124C112.22 82.9993 112.25 83.4159 112.25 83.4159L109.006 84.2194Z" fill="#8798C5"/>
<path d="M114.541 95.4388C114.392 95.3793 111.208 94.5758 111.506 91.6593C111.803 88.7429 114.571 88.7131 115.464 88.8917C116.327 89.0702 117.19 90.0523 117.19 90.0523" stroke="#8798C5" stroke-width="3" stroke-miterlimit="10" stroke-linecap="round" stroke-linejoin="round"/>
<path d="M112.25 87.7905C112.25 87.7905 113.202 91.0343 113.738 92.9985C114.273 94.9328 114.422 96.6292 114.422 96.6292" stroke="#8798C5" stroke-width="3" stroke-miterlimit="10" stroke-linecap="round" stroke-linejoin="round"/>
<path d="M114.422 87.1656C114.422 87.1656 115.374 90.4094 115.91 92.3735C116.446 94.3079 116.595 96.0042 116.595 96.0042" stroke="#8798C5" stroke-width="3" stroke-miterlimit="10" stroke-linecap="round" stroke-linejoin="round"/>
<path d="M102.459 86.124C102.459 86.124 100.256 83.5944 98.828 84.3384C97.8162 84.8741 97.6079 86.1835 99.0661 87.1061C99.9589 87.6715 100.971 89.4869 99.9291 90.5582C98.8578 91.6296 96.6258 91.2129 95.7033 90.2606C94.7807 89.3083 94.7212 88.1179 94.7212 88.1179" stroke="#8798C5" stroke-width="3" stroke-miterlimit="10" stroke-linecap="round" stroke-linejoin="round"/>
<path d="M95.2271 91.3915C95.2271 91.3915 96.6853 89.2785 98.1435 87.3144C99.6017 85.3503 101.358 83.773 101.358 83.773" stroke="#8798C5" stroke-width="3" stroke-miterlimit="10" stroke-linecap="round" stroke-linejoin="round"/>
<path d="M96.4473 92.1355C96.4473 92.1355 97.9055 90.0225 99.3637 88.0584C100.822 86.0943 102.578 84.517 102.578 84.517" stroke="#8798C5" stroke-width="3" stroke-miterlimit="10" stroke-linecap="round" stroke-linejoin="round"/>
<path d="M301.462 132.877C300.986 131.924 302.622 128.264 303.277 121.806C303.932 115.348 303.277 112.074 303.277 112.074C303.277 112.074 292.98 104.367 283.844 101.212C274.708 98.0577 265.363 95.915 251.495 94.3972C237.627 92.8795 217.153 92.5224 217.153 92.5224C217.153 92.5224 216.766 92.939 215.129 93.7127C214.593 93.9508 213.641 94.1889 212.599 94.3972C206.35 93.9508 202.749 91.2725 202.749 91.2725C202.749 91.2725 172.781 77.1961 162.365 72.2262C161.175 71.6608 161.532 71.3037 162.216 71.0359C162.901 70.768 164.597 70.6787 164.597 70.6787L161.651 69.4288C161.651 69.4288 160.133 69.3396 159.27 69.6074C158.943 69.6967 158.526 69.9943 158.169 70.2919C157.99 70.3216 157.931 70.4109 157.931 70.4109C157.931 70.4109 157.038 71.3632 156.83 71.6608C156.651 71.9584 156.859 72.3155 156.859 72.3155C156.859 72.3155 160.52 74.2499 168.972 78.7734C174.328 81.6601 180.31 85.142 183.613 87.0763C183.822 87.1954 184 87.3144 184.179 87.4632L198.285 94.3675H184.982H182.393H176.888C176.888 94.3675 125.523 94.3675 107.012 93.8615C93.3225 93.4747 45.0225 93.3854 45.0225 93.3854C45.0225 93.3854 30.4701 93.5342 23.2682 95.3198C21.185 95.8257 18.1793 99.9325 17.7627 101.718H32.702C32.9996 101.718 33.2675 101.748 33.5651 101.807C34.3983 101.986 36.2137 102.492 38.1778 103.712C40.8859 105.379 40.3503 105.289 40.3503 105.289L17.6734 105.676C17.7329 106.152 17.8222 106.658 17.9115 107.105C18.5067 110.081 17.8222 113.176 15.9473 115.586C15.0248 116.747 14.3105 118.205 14.3105 119.872C14.3105 124.306 14.3998 125.526 17.1972 131.24C18.8638 134.632 21.4529 135.852 23.4765 136.269C23.8634 136.864 49.1591 138.858 58.2954 138.739C58.8906 138.739 59.6048 138.739 60.4381 138.769C59.9322 136.686 59.6346 134.484 59.6346 132.252C59.6346 129.454 60.0512 126.716 60.8547 124.157C61.6582 121.598 62.8188 119.187 64.2771 117.015C67.2233 112.67 71.3599 109.218 76.2702 107.164C79.5438 105.795 83.115 105.021 86.8647 105.021C89.6621 105.021 92.4 105.438 94.9593 106.242C97.5186 107.045 99.9292 108.206 102.102 109.664C106.447 112.61 109.899 116.747 111.952 121.657C113.321 124.931 114.095 128.502 114.095 132.252C114.095 135.049 113.678 137.787 112.875 140.346C112.696 140.941 112.488 141.537 112.25 142.132H112.637C112.637 142.132 112.637 142.132 113.797 141.566C114.958 141.001 123.023 139.93 123.023 139.93L200.219 141.566L227.479 141.388C226.11 138.144 225.366 134.573 225.366 130.853C225.366 128.055 225.783 125.318 226.586 122.758C227.39 120.199 228.551 117.788 230.009 115.616C232.955 111.271 237.092 107.819 242.002 105.765C245.276 104.396 248.847 103.623 252.596 103.623C255.394 103.623 258.132 104.039 260.691 104.843C263.25 105.646 265.661 106.807 267.833 108.265C272.178 111.211 275.63 115.348 277.684 120.258C279.053 123.532 279.827 127.103 279.827 130.853C279.827 133.65 279.41 136.388 278.606 138.947C278.339 139.811 278.011 140.644 277.684 141.477C278.279 141.179 281.017 139.9 285.362 139.037C290.272 138.084 302.593 137.489 302.593 137.489L303.575 135.376C303.604 135.376 301.968 133.859 301.462 132.877Z" fill="#EF7C5D"/>
<path d="M172.691 93.4151C172.691 93.4151 172.751 92.8497 174.001 93.0878C175.251 93.3259 176.501 93.4151 176.501 93.4151C176.501 93.4151 177.81 91.9867 177.691 91.2725C177.602 90.5582 176.054 89.7249 177.691 89.4273C179.328 89.1298 186.262 90.5285 186.262 90.5285L185.637 95.0817H171.918L172.691 93.4151Z" fill="#575785"/>
<path fill-rule="evenodd" clip-rule="evenodd" d="M133.766 80.2911C134.897 80.7077 139.956 83.8325 139.956 83.8325C139.956 83.8325 139.539 82.8504 139.688 81.6601C139.777 81.1244 139.777 80.9458 140.73 80.8566C140.402 79.9935 139.182 72.8214 139.182 72.8214L135.551 73.119C135.522 73.119 135.046 77.4342 133.766 80.2911Z" fill="#E2A2A2"/>
<mask id="mask0" mask-type="alpha" maskUnits="userSpaceOnUse" x="137" y="69" width="9" height="13">
<path fill-rule="evenodd" clip-rule="evenodd" d="M137.278 74.8451C136.831 78.1781 138.825 80.8565 141.325 81.3327C143.527 81.7493 144.331 79.934 145.045 76.1247C145.908 71.3632 146.057 70.0538 142.872 69.5181C142.813 69.5181 142.783 69.4883 142.724 69.4883C140.283 69.161 137.694 71.5715 137.278 74.8451Z" fill="white"/>
</mask>
<g mask="url(#mask0)">
<path fill-rule="evenodd" clip-rule="evenodd" d="M137.278 74.8451C136.831 78.1781 137.992 80.6184 140.492 81.0946C142.337 81.541 144.658 78.8626 145.372 75.0236C146.235 70.2621 146.027 70.0538 142.873 69.4883C142.813 69.4883 142.783 69.4586 142.724 69.4586C140.283 69.161 137.694 71.5715 137.278 74.8451Z" fill="url(#paint0_radial)"/>
</g>
<path fill-rule="evenodd" clip-rule="evenodd" d="M138.676 75.6486C138.676 75.6486 139.182 75.7676 139.569 75.3212C139.926 74.8748 140.015 74.1309 139.837 73.5654C139.688 73.0893 139.182 72.375 139.42 72.1965C139.688 72.0179 140.313 72.4345 140.73 71.8394C141.176 71.2442 140.849 71.0358 141.027 70.887C141.206 70.7382 141.861 71.2144 143.468 71.2144C143.706 71.2144 143.914 71.2739 144.122 71.3632C144.36 71.4822 144.688 71.6013 145.015 71.5715C145.491 71.5418 146.146 70.768 146.354 69.8752C146.563 68.9824 146.206 68.1789 145.61 67.9408C145.223 67.792 144.45 67.9408 143.914 67.6432C143.259 67.2861 143.021 66.7207 141.831 66.2743C140.759 65.8874 139.867 65.9469 138.825 65.8279C137.813 65.7089 137.278 65.5303 136.415 65.7981C135.611 66.0362 134.927 66.4826 134.391 67.7028C134.034 68.5658 134.242 69.3395 134.212 69.6967C134.183 70.2026 133.766 70.2919 133.617 70.8573C133.468 71.4227 133.558 71.8096 133.409 72.1965C133.26 72.5536 133.111 73.0595 133.26 73.7142C133.439 74.4582 133.915 74.5772 133.944 74.9046C133.974 75.232 133.885 75.5593 134.153 76.0652C134.51 76.6604 135.046 77.1961 135.79 77.1068C136.325 77.0175 136.682 75.2915 136.682 75.2915L138.676 75.6486Z" fill="#423748"/>
<path fill-rule="evenodd" clip-rule="evenodd" d="M138.795 75.0831C139.063 76.0652 139.093 76.6009 138.498 76.7794C137.873 76.958 137.099 76.1842 136.682 75.2022C136.266 74.2499 136.563 73.744 137.159 73.5952C137.635 73.4761 138.409 73.7737 138.795 75.0831Z" fill="#F4AAAE"/>
<path fill-rule="evenodd" clip-rule="evenodd" d="M132.933 81.9874L133.677 79.7852C133.677 79.7852 136.147 79.9042 138.26 80.6482C140.343 81.3922 140.402 81.6898 140.402 81.6898L139.777 83.2373C139.777 83.2373 138.141 82.4338 136.117 82.0767C134.063 81.7196 132.933 81.9874 132.933 81.9874Z" fill="#EFEEED"/>
<path fill-rule="evenodd" clip-rule="evenodd" d="M165.639 88.6536L167.781 87.9989C167.781 87.9989 168.763 87.5227 169.983 86.8382C171.204 86.1538 173.584 85.2312 173.584 85.2312C173.584 85.2312 174.358 84.8443 174.894 85.5288C175.429 86.243 176.173 87.7608 176.173 87.7608C176.173 87.7608 176.263 88.475 175.668 88.8619C175.072 89.2488 174.388 89.4273 174.388 89.4273C174.388 89.4273 174.745 88.4155 174.685 88.0584C174.626 87.7013 174.269 87.0168 173.346 87.612C172.424 88.2072 171.293 89.7845 171.293 89.7845C171.293 89.7845 170.876 90.588 169.478 90.7368C168.079 90.8856 165.668 91.2129 165.668 91.2129V88.6536H165.639Z" fill="#F3A9AE"/>
<path fill-rule="evenodd" clip-rule="evenodd" d="M133.26 83.2373C133.26 83.2373 131.088 82.2255 131.177 84.7551C131.266 87.2846 132.337 90.826 133.26 92.6116C134.153 94.4269 134.153 94.4269 134.153 94.4269H152.425L133.26 83.2373Z" fill="#EFEEED"/>
<path fill-rule="evenodd" clip-rule="evenodd" d="M131.445 83.6242C131.445 83.6242 130.314 86.124 132.933 88.6536C135.551 91.1832 141.474 92.7009 146.176 93.7723C150.878 94.8436 152.395 95.1412 153.169 95.0817C153.973 95.0222 167.662 91.3915 167.662 91.3915C167.662 91.3915 167.96 90.3201 167.662 89.1595C167.365 87.9989 166.948 87.6418 166.948 87.6418L152.663 89.1595C152.663 89.1595 145.164 85.9752 143.557 85.6181C141.98 85.261 140.164 81.8386 135.909 81.66C131.653 81.4815 131.445 83.6242 131.445 83.6242Z" fill="white"/>
<path fill-rule="evenodd" clip-rule="evenodd" d="M170.638 97.8196C170.132 97.641 169.864 97.1053 170.013 96.5994L172.93 87.9096C173.108 87.4037 173.644 87.1359 174.15 87.2846C174.656 87.4632 174.924 87.9989 174.775 88.5048L171.858 97.1946C171.71 97.7005 171.144 97.9684 170.638 97.8196Z" fill="#575785"/>
<path fill-rule="evenodd" clip-rule="evenodd" d="M123.052 94.427L120.017 81.3625C120.017 81.3625 119.719 79.19 121.326 79.2793C123.231 79.3983 125.433 79.6662 126.237 80.3506C127.249 81.2137 134.183 94.427 134.183 94.427H123.052Z" fill="#8798C5"/>
<path fill-rule="evenodd" clip-rule="evenodd" d="M120.582 78.3865C120.582 78.3865 119.362 78.5651 118.826 77.2556C118.321 75.9462 117.993 72.4048 117.993 72.4048C117.993 72.4048 118.767 71.1847 119.809 71.2442C120.85 71.3037 123.35 71.5715 123.35 71.5715C123.35 71.5715 124.451 71.9882 124.897 73.4762C125.344 74.9939 126.118 77.6127 126.118 77.6127C126.118 77.6127 126.445 79.2198 124.838 78.9817C123.35 78.7436 120.582 78.3865 120.582 78.3865Z" fill="#8798C5"/>
<path d="M132.933 101.659C130.79 101.659 128.945 102.224 127.903 103.028H137.962C136.92 102.194 135.046 101.659 132.933 101.659Z" fill="#D1674E"/>
<path d="M132.933 107.343C135.224 107.343 137.188 106.718 138.17 105.765H127.695C128.647 106.718 130.641 107.343 132.933 107.343Z" fill="#D1674E"/>
<path d="M138.795 104.515C138.795 103.98 138.498 103.474 137.962 103.057H127.903C127.368 103.474 127.07 103.98 127.07 104.515C127.07 104.992 127.308 105.408 127.695 105.795H138.17C138.557 105.408 138.795 104.962 138.795 104.515Z" fill="#EF7C5D"/>
<path d="M38.1777 103.742C36.2136 102.522 34.3982 102.016 33.565 101.837C33.2971 101.778 32.9995 101.748 32.7019 101.748H17.7625C17.4947 102.968 17.4947 104.337 17.6733 105.706L40.3502 105.319C40.3502 105.319 40.8858 105.408 38.1777 103.742Z" fill="#E52D36"/>
<path d="M185.548 91.4808L184.953 94.427H198.255L184.149 87.5227C185.28 88.475 185.845 89.9928 185.548 91.4808Z" fill="#575785"/>
<path d="M222.747 134.751L115.493 131.865C115.493 131.865 127.606 126.538 137.932 126.954C148.259 127.401 222.747 134.751 222.747 134.751Z" fill="#F18971"/>
<path d="M105.855 136.734C108.329 126.258 101.841 115.759 91.3644 113.285C80.8875 110.811 70.3887 117.299 67.9148 127.776C65.4409 138.253 71.9287 148.751 82.4056 151.225C92.8826 153.699 103.381 147.211 105.855 136.734Z" fill="#8798C5"/>
<path d="M110.672 132.252C110.672 128.978 110.018 125.823 108.798 122.996C106.982 118.711 103.976 115.11 100.167 112.521C98.2626 111.241 96.1794 110.229 93.9474 109.515C91.7155 108.831 89.3347 108.444 86.8646 108.444C83.5911 108.444 80.4366 109.099 77.6094 110.319C73.324 112.134 69.7231 115.14 67.134 118.949C65.8543 120.854 64.8425 122.937 64.1282 125.169C63.4438 127.401 63.0569 129.781 63.0569 132.252C63.0569 134.543 63.3842 136.805 64.0092 138.918C76.7463 139.483 101.953 141.477 108.559 142.013C108.946 141.15 109.274 140.257 109.571 139.334C110.315 137.102 110.672 134.722 110.672 132.252Z" fill="#423748"/>
<path d="M105.855 136.734C108.329 126.258 101.841 115.759 91.3644 113.285C80.8875 110.811 70.3887 117.299 67.9148 127.776C65.4409 138.253 71.9287 148.751 82.4056 151.225C92.8826 153.699 103.381 147.211 105.855 136.734Z" fill="#8798C5"/>
<path d="M106.357 132.252H104.125C104.125 134.632 103.649 136.894 102.756 138.977C101.447 142.072 99.2447 144.721 96.5068 146.566C95.1378 147.488 93.6201 148.232 91.9833 148.738C90.3763 149.244 88.6502 149.512 86.8646 149.512C84.4838 149.512 82.2221 149.036 80.1389 148.143C77.0439 146.834 74.3953 144.632 72.5502 141.894C71.6277 140.525 70.8837 139.007 70.3777 137.37C69.8718 135.763 69.604 134.037 69.604 132.252C69.604 129.871 70.0801 127.609 70.9729 125.526C72.2824 122.431 74.4846 119.782 77.2225 117.937C78.5914 117.015 80.1092 116.271 81.7459 115.765C83.353 115.259 85.079 114.991 86.8646 114.991C89.2454 114.991 91.5071 115.467 93.5903 116.36C96.6853 117.669 99.3339 119.872 101.179 122.609C102.102 123.978 102.846 125.496 103.351 127.133C103.857 128.74 104.125 130.466 104.125 132.252H106.357H108.589C108.589 129.246 107.994 126.389 106.893 123.8C105.256 119.901 102.488 116.598 99.0363 114.247C97.3103 113.086 95.3759 112.134 93.3522 111.509C91.2988 110.884 89.1263 110.527 86.8944 110.527C83.8886 110.527 81.0317 111.122 78.4426 112.223C74.5441 113.86 71.2408 116.628 68.8898 120.08C67.7291 121.806 66.7768 123.74 66.1519 125.764C65.5269 127.817 65.1698 129.99 65.1698 132.222C65.1698 135.228 65.765 138.084 66.8661 140.674C68.5029 144.572 71.2705 147.875 74.7227 150.226C76.4487 151.387 78.3831 152.339 80.4068 152.964C82.4602 153.589 84.6326 153.946 86.8646 153.946C89.8703 153.946 92.7273 153.351 95.3164 152.25C99.2149 150.613 102.518 147.846 104.869 144.393C106.03 142.667 106.982 140.733 107.607 138.709C108.232 136.656 108.589 134.484 108.589 132.252H106.357Z" fill="#575785"/>
<path d="M80.496 120.437C80.4068 120.258 80.1687 120.169 79.9902 120.258C79.5438 120.496 78.7105 120.943 77.9665 121.479C77.282 121.984 76.6868 122.639 76.3595 123.026C76.2107 123.205 76.2404 123.502 76.4488 123.621L83.7994 128.502C84.0077 128.651 84.2755 128.413 84.1565 128.204L80.496 120.437Z" fill="#575785"/>
<path d="M89.8704 119.068C89.9299 118.86 89.8109 118.651 89.6026 118.592C89.0967 118.473 88.1741 118.235 87.2813 118.145C86.4183 118.056 85.5553 118.145 85.0494 118.205C84.8113 118.235 84.6625 118.473 84.722 118.711L86.8944 127.282C86.954 127.52 87.2813 127.52 87.3706 127.282L89.8704 119.068Z" fill="#575785"/>
<path d="M97.6673 123.889C97.8459 123.77 97.8756 123.532 97.7566 123.353C97.459 122.937 96.8936 122.193 96.2686 121.538C95.6734 120.913 94.9294 120.437 94.5128 120.169C94.3045 120.05 94.0367 120.11 93.9176 120.348L90.1679 128.353C90.0489 128.591 90.3167 128.799 90.525 128.651L97.6673 123.889Z" fill="#575785"/>
<path d="M100.376 132.341C100.584 132.371 100.762 132.192 100.792 131.984C100.822 131.478 100.852 130.525 100.792 129.633C100.733 128.77 100.465 127.936 100.316 127.46C100.227 127.222 99.9887 127.133 99.7506 127.222L91.775 131.031C91.5667 131.15 91.5965 131.478 91.8643 131.508L100.376 132.341Z" fill="#575785"/>
<path d="M97.5186 140.941C97.6674 141.09 97.9055 141.09 98.0543 140.941C98.4114 140.554 99.0364 139.87 99.5423 139.126C100.018 138.412 100.376 137.608 100.554 137.132C100.643 136.894 100.495 136.656 100.257 136.596L91.6857 134.484C91.4477 134.424 91.2691 134.722 91.4477 134.9L97.5186 140.941Z" fill="#575785"/>
<path d="M89.8405 145.554C89.8703 145.762 90.0489 145.911 90.2572 145.881C90.7631 145.822 91.7154 145.673 92.5784 145.405C93.4117 145.167 94.1855 144.751 94.6319 144.513C94.8402 144.394 94.8997 144.126 94.7509 143.917L89.4537 136.835C89.3049 136.626 88.9775 136.745 89.0073 137.013L89.8405 145.554Z" fill="#575785"/>
<path d="M80.7936 144.185C80.6746 144.364 80.7341 144.602 80.9127 144.721C81.3591 144.989 82.1626 145.465 82.9958 145.822C83.7696 146.149 84.6326 146.328 85.1385 146.417C85.3766 146.447 85.5849 146.268 85.6147 146.03L86.0313 137.221C86.0313 136.983 85.7337 136.864 85.5849 137.073L80.7936 144.185Z" fill="#575785"/>
<path d="M74.6929 137.549C74.4846 137.608 74.3655 137.817 74.4548 138.025C74.6334 138.501 74.9607 139.394 75.3476 140.197C75.7345 140.971 76.2999 141.626 76.6273 142.042C76.7761 142.221 77.0737 142.221 77.2224 142.042L83.1446 135.495C83.3232 135.317 83.1149 135.019 82.9066 135.108L74.6929 137.549Z" fill="#575785"/>
<path d="M74.2763 128.085C74.068 127.996 73.8597 128.115 73.7704 128.293C73.5918 128.77 73.2645 129.662 73.0859 130.555C72.9074 131.388 72.9073 132.281 72.9073 132.787C72.9073 133.025 73.1454 133.204 73.3835 133.174L82.1031 131.865C82.3412 131.835 82.4007 131.508 82.1626 131.388L74.2763 128.085Z" fill="#575785"/>
<path d="M111.982 121.657C109.899 116.777 106.476 112.61 102.131 109.664C99.9589 108.206 97.5484 107.045 94.989 106.242C92.4297 105.438 89.6918 105.021 86.8944 105.021C83.1447 105.021 79.5438 105.795 76.3 107.164C71.4194 109.247 67.253 112.67 64.3068 117.015C62.8486 119.187 61.688 121.598 60.8845 124.157C60.0809 126.716 59.6643 129.454 59.6643 132.252C59.6643 134.484 59.9321 136.686 60.4678 138.769C61.5094 138.799 62.7296 138.828 64.0687 138.888C63.4438 136.775 63.1164 134.543 63.1164 132.222C63.1164 129.781 63.5033 127.371 64.1878 125.139C64.8722 122.907 65.9138 120.794 67.1935 118.919C69.7528 115.11 73.3835 112.104 77.6689 110.289C80.5258 109.069 83.6506 108.414 86.9242 108.414C89.3645 108.414 91.775 108.801 94.007 109.485C96.239 110.17 98.3519 111.211 100.227 112.491C104.036 115.05 107.042 118.681 108.857 122.967C110.077 125.823 110.732 128.948 110.732 132.222C110.732 134.662 110.345 137.073 109.661 139.305C109.363 140.227 109.036 141.12 108.649 141.983C109.69 142.072 110.286 142.102 110.286 142.102H112.339C112.577 141.507 112.785 140.941 112.964 140.316C113.767 137.757 114.184 135.019 114.184 132.222C114.125 128.502 113.351 124.901 111.982 121.657Z" fill="#D1674E"/>
<path d="M225.991 107.194H209.445V109.485L220.396 109.723C221.408 109.753 222.42 109.456 223.313 108.92L225.991 107.194Z" fill="#575785"/>
<path d="M279.886 130.853C279.886 127.103 279.112 123.502 277.743 120.258C275.66 115.378 272.238 111.211 267.893 108.265C265.72 106.807 263.31 105.646 260.75 104.843C258.191 104.039 255.453 103.623 252.656 103.623C248.906 103.623 245.305 104.396 242.061 105.765C237.181 107.849 233.014 111.271 230.068 115.616C228.61 117.788 227.449 120.199 226.646 122.758C225.842 125.318 225.426 128.055 225.426 130.853C225.426 134.573 226.17 138.144 227.539 141.388L276.196 141.09L277.654 141.566C277.654 141.566 277.684 141.537 277.773 141.507C278.13 140.674 278.428 139.84 278.696 138.977C279.469 136.388 279.886 133.65 279.886 130.853Z" fill="#D1674E"/>
<path d="M272.085 135.972C273.763 125.338 266.502 115.358 255.868 113.681C245.233 112.003 235.253 119.264 233.576 129.898C231.899 140.533 239.159 150.513 249.794 152.19C260.428 153.867 270.408 146.606 272.085 135.972Z" fill="#8798C5"/>
<path d="M276.553 131.15C276.315 127.877 275.392 124.812 273.994 122.044C271.881 117.907 268.577 114.515 264.619 112.253C262.625 111.122 260.453 110.259 258.191 109.723C255.9 109.188 253.489 109.009 251.049 109.188C247.775 109.426 244.71 110.348 241.942 111.747C237.806 113.86 234.413 117.163 232.151 121.121C231.021 123.115 230.158 125.288 229.622 127.549C229.086 129.841 228.908 132.252 229.086 134.692C229.265 136.983 229.771 139.186 230.544 141.269C243.282 140.882 268.577 140.971 275.214 140.971C275.541 140.078 275.809 139.156 276.017 138.233C276.553 136.001 276.731 133.591 276.553 131.15Z" fill="#423748"/>
<path d="M272.085 135.972C273.763 125.338 266.502 115.358 255.868 113.681C245.233 112.003 235.253 119.264 233.576 129.898C231.899 140.533 239.159 150.513 249.794 152.19C260.428 153.867 270.408 146.606 272.085 135.972Z" fill="#8798C5"/>
<path d="M272.268 131.478L270.036 131.656C270.214 134.037 269.916 136.329 269.202 138.442C268.131 141.626 266.137 144.423 263.548 146.477C262.239 147.518 260.78 148.352 259.203 148.976C257.626 149.601 255.929 149.988 254.144 150.137C251.763 150.316 249.472 150.018 247.359 149.304C244.174 148.232 241.377 146.239 239.324 143.649C238.282 142.34 237.449 140.882 236.824 139.305C236.199 137.727 235.812 136.031 235.663 134.245C235.485 131.865 235.782 129.573 236.496 127.46C237.568 124.276 239.562 121.478 242.151 119.425C243.46 118.383 244.918 117.55 246.496 116.925C248.073 116.3 249.769 115.913 251.555 115.765C253.936 115.586 256.227 115.884 258.34 116.598C261.524 117.669 264.322 119.663 266.375 122.252C267.417 123.562 268.25 125.02 268.875 126.597C269.5 128.174 269.887 129.871 270.036 131.656L272.268 131.478L274.499 131.299C274.261 128.323 273.458 125.496 272.148 122.996C270.214 119.217 267.208 116.122 263.578 114.068C261.762 113.027 259.798 112.253 257.685 111.777C255.602 111.301 253.4 111.122 251.168 111.301C248.192 111.539 245.365 112.342 242.865 113.652C239.086 115.586 235.991 118.592 233.937 122.222C232.896 124.038 232.122 126.002 231.646 128.115C231.169 130.198 230.991 132.4 231.169 134.632C231.408 137.608 232.211 140.435 233.521 142.935C235.455 146.715 238.461 149.81 242.091 151.863C243.907 152.905 245.871 153.679 247.984 154.155C250.067 154.631 252.269 154.809 254.501 154.631C257.477 154.393 260.304 153.589 262.804 152.28C266.583 150.345 269.678 147.34 271.732 143.709C272.773 141.894 273.547 139.93 274.023 137.817C274.499 135.733 274.678 133.531 274.499 131.299L272.268 131.478Z" fill="#575785"/>
<path d="M245.573 121.657C245.454 121.479 245.216 121.419 245.037 121.508C244.591 121.776 243.817 122.282 243.103 122.877C242.448 123.443 241.913 124.127 241.615 124.544C241.466 124.752 241.526 125.02 241.734 125.139L249.442 129.454C249.65 129.573 249.888 129.335 249.769 129.127L245.573 121.657Z" fill="#575785"/>
<path d="M254.799 119.574C254.858 119.366 254.709 119.157 254.501 119.127C253.995 119.038 253.073 118.889 252.15 118.86C251.287 118.83 250.424 118.979 249.918 119.098C249.68 119.157 249.531 119.395 249.62 119.633L252.448 127.996C252.537 128.234 252.864 128.204 252.924 127.966L254.799 119.574Z" fill="#575785"/>
<path d="M262.983 123.77C263.161 123.651 263.191 123.383 263.042 123.234C262.715 122.847 262.09 122.133 261.405 121.538C260.751 120.973 260.007 120.526 259.53 120.288C259.322 120.169 259.054 120.288 258.965 120.496L255.84 128.74C255.751 128.978 256.019 129.157 256.227 129.008L262.983 123.77Z" fill="#575785"/>
<path d="M266.286 132.013C266.494 132.013 266.673 131.835 266.673 131.627C266.673 131.121 266.643 130.168 266.494 129.276C266.345 128.442 266.048 127.609 265.839 127.133C265.75 126.895 265.482 126.805 265.274 126.954L257.626 131.359C257.417 131.478 257.507 131.805 257.745 131.805L266.286 132.013Z" fill="#575785"/>
<path d="M264.113 140.793C264.262 140.941 264.53 140.912 264.649 140.733C264.976 140.316 265.542 139.572 265.988 138.799C266.405 138.055 266.702 137.221 266.851 136.715C266.911 136.477 266.762 136.239 266.524 136.21L257.804 134.751C257.566 134.722 257.417 135.019 257.596 135.168L264.113 140.793Z" fill="#575785"/>
<path d="M256.792 145.971C256.822 146.179 257.03 146.328 257.239 146.268C257.745 146.149 258.667 145.941 259.5 145.643C260.304 145.346 261.048 144.87 261.465 144.572C261.673 144.423 261.703 144.155 261.554 143.977L255.751 137.311C255.602 137.132 255.275 137.281 255.334 137.519L256.792 145.971Z" fill="#575785"/>
<path d="M247.656 145.286C247.537 145.465 247.626 145.703 247.805 145.792C248.251 146.03 249.114 146.447 249.948 146.744C250.751 147.012 251.614 147.131 252.15 147.191C252.388 147.221 252.596 147.012 252.596 146.774L252.328 137.936C252.328 137.698 252.001 137.608 251.882 137.817L247.656 145.286Z" fill="#575785"/>
<path d="M241.079 139.156C240.871 139.245 240.782 139.453 240.871 139.662C241.079 140.138 241.466 141.001 241.942 141.775C242.389 142.489 242.984 143.144 243.371 143.501C243.55 143.679 243.817 143.649 243.966 143.471L249.382 136.477C249.531 136.269 249.323 136.001 249.114 136.091L241.079 139.156Z" fill="#575785"/>
<path d="M239.948 129.722C239.74 129.662 239.532 129.781 239.472 129.96C239.323 130.466 239.085 131.359 238.966 132.252C238.847 133.085 238.907 133.978 238.966 134.483C238.996 134.722 239.234 134.9 239.472 134.841L248.073 132.876C248.311 132.817 248.341 132.49 248.103 132.4L239.948 129.722Z" fill="#575785"/>
<path fill-rule="evenodd" clip-rule="evenodd" d="M12.4951 118.086C12.4951 118.086 35.4101 118.503 36.541 118.086C37.7016 117.669 40.7669 114.693 39.7253 114.396C38.6539 114.098 12.4951 114.009 12.4951 114.009V118.086Z" fill="#F18971"/>
<path d="M283.874 101.212C274.738 98.0279 265.393 95.9149 251.525 94.3972C237.657 92.8795 217.182 92.5223 217.182 92.5223C217.182 92.5223 216.795 92.939 215.159 93.7127C214.623 93.9508 213.671 94.1889 212.629 94.3972C211.111 94.2782 209.772 94.0401 208.582 93.7425C206.469 94.1294 204.148 94.3972 201.707 94.3972C201.112 94.3972 199.892 94.3674 198.136 94.3377L198.285 94.3972H184.982H182.393H176.888C176.888 94.3972 125.522 94.3972 107.012 93.8913C93.3225 93.5044 45.0225 93.4151 45.0225 93.4151C45.0225 93.4151 30.47 93.5639 23.2681 95.3495C22.1075 95.6471 20.6493 97.0458 19.5184 98.5338C26.75 97.9684 44.3975 96.8375 51.9267 98.8016C61.5391 101.301 70.4373 110.497 70.4373 110.497C72.2228 109.158 74.1572 107.997 76.2702 107.134C79.5437 105.765 83.1149 104.992 86.8646 104.992C89.662 104.992 92.3999 105.408 94.9592 106.212C97.5186 107.015 99.9291 108.176 102.102 109.634C103.947 110.884 105.613 112.313 107.071 113.949C108.054 111.45 111.476 105.646 123.023 103.563C137.932 100.885 210.129 102.432 219.742 103.682C227.717 104.724 233.312 108.682 234.979 110.021C237.062 108.235 239.443 106.777 242.002 105.706C245.275 104.337 248.847 103.563 252.596 103.563C255.394 103.563 258.132 103.98 260.691 104.783C263.25 105.587 265.661 106.747 267.833 108.206C268.964 108.979 270.036 109.842 271.047 110.765C271.881 108.86 274.083 106.123 279.826 105.051C285.421 104.01 296.016 109.098 303.396 113.205C303.307 112.432 303.247 112.045 303.247 112.045C303.247 112.045 293.01 104.396 283.874 101.212Z" fill="#F18971"/>
<path fill-rule="evenodd" clip-rule="evenodd" d="M190.458 91.7188L190.845 90.2309C190.904 89.9928 190.845 89.7249 190.666 89.5464C189.922 88.8322 187.809 87.0466 184.923 86.6597C181.292 86.1836 181.232 86.5407 180.459 87.1359C179.923 87.5525 179.209 88.5346 178.822 89.1297C178.614 89.4273 178.584 89.7845 178.703 90.1118C178.941 90.707 179.506 91.5998 180.667 91.8379C182.185 92.1355 187.958 92.195 189.774 92.2247C190.101 92.2247 190.369 92.0164 190.458 91.7188Z" fill="#EF7C5D"/>
<path fill-rule="evenodd" clip-rule="evenodd" d="M177.364 89.9333C177.453 89.9035 184.714 89.4869 188.375 89.9333C192.035 90.3796 192.839 90.4392 192.839 90.4392C192.839 90.4392 190.399 87.4037 190.071 87.1656C189.744 86.9275 184.655 85.4991 184.655 85.4991L178.673 85.6776L177.364 89.9333Z" fill="#F18971"/>
<path fill-rule="evenodd" clip-rule="evenodd" d="M298.396 112.313C298.396 112.313 295.361 113.116 292.683 112.313C290.004 111.509 278.636 105.081 274.559 103.593C270.452 102.135 266.048 100.974 268.31 100.319C270.541 99.6647 281.225 102.67 286.999 105.111C292.772 107.551 298.396 110.11 298.396 111.211C298.396 112.313 298.396 112.313 298.396 112.313Z" fill="#DEE2F0"/>
<path fill-rule="evenodd" clip-rule="evenodd" d="M290.748 129.484C290.748 129.484 290.54 122.58 289.379 120.764C288.219 118.949 286.642 118.086 286.284 119.604C285.927 121.121 287.237 124.306 288.1 126.597C288.963 128.889 289.469 129.93 290.123 129.692C290.748 129.484 290.748 129.484 290.748 129.484Z" fill="#656EA0"/>
<path d="M123.052 94.427C123.052 94.427 115.493 98.1172 123.975 117.967C130.254 132.698 141.801 131.835 141.801 131.835L201.886 133.65C201.886 133.65 203.463 123.026 204.058 120.794C204.624 118.592 204.921 104.635 203.404 99.9325C202.66 97.5815 198.94 94.4567 198.94 94.4567" stroke="#D1674E" stroke-miterlimit="10"/>
<path d="M67.4017 76.6306C67.4017 76.6306 66.3304 80.3209 69.6635 81.5112C72.9965 82.6719 72.9966 82.6719 72.9966 82.6719C72.9966 82.6719 70.586 80.9756 70.8241 78.9817C71.0622 76.9878 71.0622 77.0175 71.0622 77.0175L67.4017 76.6306Z" fill="#E9ECF5"/>
<path d="M77.0736 81.6005C77.0736 81.6005 74.9607 84.8145 71.8955 83.029C68.86 81.2434 68.86 81.2434 68.86 81.2434C68.86 81.2434 71.7169 81.9874 73.0561 80.4994C74.3953 79.0412 74.3953 79.0412 74.3953 79.0412L77.0736 81.6005Z" fill="#CACFE2"/>
<path d="M5.79929 132.073C5.79929 132.073 9.25141 130.377 7.91222 127.133C6.57304 123.889 6.54328 123.889 6.54328 123.889C6.54328 123.889 6.90039 126.835 5.26361 127.966C3.62683 129.097 3.62683 129.097 3.62683 129.097L5.79929 132.073Z" fill="#E9ECF5"/>
<path d="M2.97206 121.568C2.97206 121.568 6.7813 121.002 7.49554 124.425C8.20977 127.877 8.20978 127.877 8.20978 127.877C8.20978 127.877 6.84083 125.258 4.84692 125.258C2.85302 125.258 2.85303 125.258 2.85303 125.258L2.97206 121.568Z" fill="#CACFE2"/>
<path d="M42.0168 111.39C42.0168 111.39 40.3205 111.092 39.6063 109.158C38.892 107.224 38.892 107.224 38.892 107.224L35.3804 106.242C35.3804 106.242 35.6482 109.188 37.9992 110.676C40.3205 112.164 42.0168 111.39 42.0168 111.39Z" fill="#8798C5"/>
<path d="M37.166 110.021C37.166 110.021 40.3801 112.997 45.1416 113.235C49.9031 113.443 50.7959 112.253 50.7959 112.253L48.802 108.92C48.802 108.92 45.8261 110.557 41.7788 110.527C37.7314 110.497 37.166 110.021 37.166 110.021Z" fill="#CACFE2"/>
<path d="M271.523 55.2929C268.994 56.1262 269.768 54.8465 267.149 53.3288C264.53 51.8111 265.958 52.555 263.399 52.3765C260.84 52.1979 261.643 55.531 258.221 54.7275C254.799 53.924 258.132 51.0671 256.763 49.0732C255.364 47.109 255.156 49.0434 251.704 50.204C248.251 51.3349 246.525 48.3887 242.776 46.2758C241.347 45.4722 240.395 45.383 239.77 45.7103C238.966 44.2819 237.449 43.3295 235.723 43.3295C235.336 43.3295 234.949 43.3891 234.592 43.4783C234.532 43.0617 234.264 41.9904 233.074 40.919C230.306 38.4787 226.438 38.449 223.759 39.4905C221.081 40.5321 219.801 42.9129 219.474 45.9782C219.474 45.9782 219.474 46.0079 219.444 46.0079C218.522 45.3532 217.391 44.9663 216.17 44.9663C213.79 44.9663 211.736 46.4543 210.933 48.5375C208.909 49.966 208.433 51.9003 208.433 51.9003C208.433 51.9003 203.046 50.2635 201.469 53.8645C199.892 57.4654 206.32 57.4654 206.32 57.4654C206.32 57.4654 275.214 59.6676 276.345 58.2987C277.475 56.9297 274.053 54.4597 271.523 55.2929Z" fill="white"/>
<defs>
<radialGradient id="paint0_radial" cx="0" cy="0" r="1" gradientUnits="userSpaceOnUse" gradientTransform="translate(150.104 88.7253) rotate(-125.082) scale(17.8329)">
<stop stop-color="#FDE8E9"/>
<stop offset="1" stop-color="#F4A9AD"/>
</radialGradient>
</defs>
</svg>
