<svg width="191" height="54" viewBox="0 0 191 54" fill="none" xmlns="http://www.w3.org/2000/svg">
<g clip-path="url(#clip0)">
<path d="M19.516 48.5082C19.715 49.1572 19.6969 49.4096 19.8958 49.4997C19.9863 49.5358 22.627 50.329 22.6993 49.662C23.5313 42.5592 42.9931 35.2041 44.2954 41.2973C46.0317 38.7194 47.8223 36.1235 48.5277 32.9507C48.5458 32.5001 48.6905 32.3558 48.6905 32.3558C46.9903 26.8215 14.6144 32.3558 19.516 48.5082ZM49.0342 24.6943C48.7448 21.4854 47.8585 18.3487 46.3935 15.4824C36.8796 4.08917 0.271306 15.8249 12.7876 45.2633C13.1674 46.1647 13.6919 46.6694 13.9271 46.5072C14.1803 46.345 15.3198 46.2368 15.1932 45.3535C11.8832 22.3147 40.8769 16.8164 49.0342 24.6943ZM38.6522 7.35209C38.8692 7.44223 40.6237 8.23543 40.2077 7.74869C39.7736 7.2259 39.2671 6.79325 38.6703 6.46876C9.22443 -10.3146 -13.8366 29.5436 8.62755 47.6429C9.47765 48.346 10.0745 48.8327 10.2735 48.8327C10.5448 48.8507 15.5549 52.4201 11.8832 46.6514C-2.04385 24.8385 14.4878 -4.32954 38.6522 7.35209Z" fill="#C2C2C2"/>
<path d="M46.2849 15.5725C44.2773 21.5575 25.6294 11.264 22.8079 5.58543C22.5185 4.97251 22.2652 4.82829 22.1567 4.86434C21.9578 4.91843 21.8131 5.15278 21.6684 5.81979C19.932 14.2205 38.4894 29.4354 49.0342 25.5235C49.0523 25.2892 49.0342 25.0368 48.9799 24.8024C48.6724 21.5936 47.75 18.4569 46.2849 15.5725ZM16.0433 7.96502C16.2061 7.08169 16.3146 6.72115 16.0975 6.50482C15.8805 6.28849 15.3921 6.82931 14.8134 7.62251C3.25568 23.5946 28.4872 47.8773 44.9103 41.5858C46.6829 38.8637 47.9309 35.8171 48.582 32.6262V32.6082C39.5746 39.6028 13.2036 23.2341 16.0433 7.96502ZM12.9866 5.27897C13.692 4.62999 14.3973 3.99904 14.126 3.96298C13.9271 3.92693 13.2217 4.26945 12.2631 4.81026C-5.71553 15.1038 -1.48314 47.1021 21.9397 52.8708V52.8888C22.627 52.9429 23.3143 52.997 24.0016 52.997C26.7328 52.997 29.4639 52.5463 32.0504 51.6269C34.3294 50.7797 35.6135 50.1126 37.784 48.7606C38.0191 48.5984 38.2543 48.4361 38.4894 48.2739C18.069 54.7096 -5.46231 22.9637 12.9866 5.27897Z" fill="#1C1C1B"/>
<path d="M185.737 22.7654H189.788L184.434 29.1831L190.258 36.1596H186.08L180.564 29.3633V36.1596H176.892V22.7654H180.564V29.2732L185.737 22.7654ZM164.213 22.7654V27.9212H169.35V22.7654H173.021V36.1596H169.35V30.6433H164.213V36.1596H160.541V22.7654H164.213ZM153.089 29.9402L151.661 29.9943C150.593 30.0303 149.798 30.2106 149.273 30.5712C148.749 30.9137 148.495 31.4545 148.495 32.1756C148.495 33.2031 149.092 33.7259 150.286 33.7259C151.136 33.7259 151.823 33.4735 152.33 32.9868C152.836 32.5001 153.089 31.8511 153.089 31.0399V29.9402ZM154.175 36.1596L153.469 34.3388H153.379C152.764 35.114 152.131 35.6548 151.462 35.9433C150.81 36.2497 149.942 36.3939 148.893 36.3939C147.591 36.3939 146.578 36.0334 145.836 35.2943C145.095 34.5552 144.715 33.5096 144.715 32.1575C144.715 30.7334 145.222 29.6878 146.216 29.0208C147.211 28.3538 148.73 27.9752 150.756 27.9031L153.089 27.831V27.2361C153.089 25.8841 152.384 25.199 150.991 25.199C149.906 25.199 148.64 25.5235 147.193 26.1725L145.963 23.7028C147.519 22.8916 149.237 22.495 151.136 22.495C152.945 22.495 154.337 22.8916 155.296 23.6667C156.255 24.4419 156.743 25.6317 156.743 27.2361V36.1596H154.175ZM115.848 21.4854C114.437 21.4854 113.352 22.0082 112.574 23.0538C111.797 24.0994 111.417 25.5596 111.417 27.4344C111.417 31.3463 112.9 33.2933 115.848 33.2933C117.078 33.2933 118.579 32.9868 120.352 32.3739V35.4926C118.905 36.0875 117.295 36.3939 115.504 36.3939C112.936 36.3939 110.983 35.6188 109.608 34.0684C108.251 32.5181 107.564 30.3007 107.564 27.4164C107.564 25.5956 107.89 24.0093 108.559 22.6392C109.228 21.2691 110.187 20.2235 111.435 19.4844C112.683 18.7453 114.148 18.3848 115.83 18.3848C117.548 18.3848 119.266 18.7994 121.003 19.6106L119.791 22.6212C119.14 22.3147 118.471 22.0443 117.801 21.8099C117.15 21.5936 116.481 21.4854 115.848 21.4854ZM106.135 36.1596H101.885L95.4819 27.2902V36.1596H91.7379V18.6371H95.4819V27.1099L101.812 18.6371H105.792L99.3526 27.0378L106.135 36.1596ZM79.71 33.113H80.958C82.2241 33.113 83.1465 32.9147 83.7253 32.5001C84.3041 32.1035 84.6116 31.4905 84.6116 30.6793C84.6116 29.8681 84.3222 29.2912 83.7253 28.9307C83.1284 28.5701 82.1155 28.3899 80.6686 28.3899H79.71V33.113ZM79.71 25.3613H81.175C83.4721 25.3613 85.2627 25.83 86.5107 26.7494C87.7587 27.6688 88.3918 28.9848 88.3918 30.6793C88.3918 34.3208 85.9681 36.1596 81.1027 36.1596H75.9659V18.6371H87.1076V21.7018H79.6919V25.3613H79.71ZM133.971 33.113H135.219C136.485 33.113 137.408 32.9147 137.987 32.5001C138.565 32.1035 138.873 31.4905 138.873 30.6793C138.873 29.8681 138.584 29.2912 137.987 28.9307C137.39 28.5701 136.377 28.3899 134.93 28.3899H133.971V33.113ZM133.971 25.3613H135.436C137.733 25.3613 139.524 25.83 140.772 26.7494C142.02 27.6688 142.653 28.9848 142.653 30.6793C142.653 34.3208 140.229 36.1596 135.364 36.1596H130.227V18.6371H141.369V21.7018H133.953V25.3613H133.971Z" fill="#1C1C1B"/>
</g>
<defs>
<clipPath id="clip0">
<rect width="191" height="53" fill="white" transform="translate(0 0.571838)"/>
</clipPath>
</defs>
</svg>
