<svg width="886" height="341" viewBox="0 0 886 341" fill="none" xmlns="http://www.w3.org/2000/svg">
<path d="M512.906 154.355C512.906 154.355 532.351 154.355 527.605 143.721C522.859 133.087 506.512 137.921 506.512 137.921C506.512 137.921 504.139 128.769 492.933 124.967C481.661 121.164 478.101 128.963 473.091 120.326C468.082 111.69 459.974 111.626 451.866 108.532C443.758 105.439 426.224 101.701 427.279 108.726C428.333 115.815 424.18 118.78 424.708 121.873C425.301 124.967 434.068 125.74 432.882 129.091C431.695 132.443 417.852 135.859 416.402 129.543C415.018 123.227 413.831 114.977 402.494 121.229C391.156 127.48 385.816 136.245 375.401 132.894C364.986 129.478 364.261 123.742 360.108 129.607C355.956 135.472 366.107 143.979 355.692 146.364C345.277 148.748 347.65 138.888 339.938 139.403C332.291 139.919 336.444 137.792 328.6 142.239C320.756 146.75 323.063 150.489 315.35 148.039C307.638 145.59 297.091 152.873 300.585 156.933C304.078 160.865 512.906 154.355 512.906 154.355Z" fill="white"/>
<path d="M305.463 185.291C305.463 185.291 314.955 185.291 312.648 181.102C310.341 176.913 302.365 178.846 302.365 178.846C302.365 178.846 301.244 175.237 295.707 173.69C290.17 172.208 288.456 175.301 286.017 171.886C283.578 168.47 283.38 165.57 279.425 164.345C275.47 163.121 271.317 164.345 270.394 166.988C269.274 170.081 269.867 170.532 270.131 171.821C270.394 173.046 271.449 174.077 270.856 175.366C270.263 176.655 258.991 178.073 258.266 175.559C257.606 173.046 257.013 169.823 251.476 172.272C245.939 174.721 243.302 178.202 238.227 176.913C233.151 175.559 232.755 173.304 230.712 175.624C228.669 177.944 233.678 181.295 228.537 182.262C223.395 183.229 224.582 179.297 220.824 179.491C217.067 179.684 219.11 178.846 215.287 180.651C211.464 182.455 212.585 183.938 208.827 182.971C205.07 182.004 199.928 184.904 201.576 186.516C203.356 187.933 305.463 185.291 305.463 185.291Z" fill="white"/>
<path fill-rule="evenodd" clip-rule="evenodd" d="M321.613 153.066L199.665 202.306L210.937 207.913L242.841 198.374L338.817 155.258L321.613 153.066Z" fill="#DEE2F0"/>
<path d="M293.136 65.8025C293.136 65.8025 300.189 65.8025 298.475 62.6445C296.762 59.4865 290.829 60.9688 290.829 60.9688C290.829 60.9688 289.972 58.2619 285.885 57.1663C281.798 56.0707 280.48 58.3264 278.634 55.8129C276.788 53.2349 276.657 51.1081 273.756 50.2058C270.79 49.3035 267.692 50.2058 267.033 52.2037C266.242 54.5239 266.637 54.8461 266.835 55.7484C267.033 56.6507 267.824 57.4241 267.362 58.3908C266.901 59.3576 258.529 60.3888 258.002 58.5197C257.475 56.6507 257.079 54.2017 252.926 56.0707C248.773 57.9397 246.862 60.5177 243.105 59.4865C239.347 58.4553 239.084 56.7796 237.502 58.5197C235.919 60.2599 239.677 62.7734 235.919 63.4179C232.096 64.1268 233.019 61.2266 230.185 61.3555C227.35 61.4844 228.932 60.9044 226.032 62.1933C223.197 63.5468 223.988 64.6424 221.22 63.869C218.451 63.1601 214.562 65.2869 215.815 66.5114C217.133 67.6715 293.136 65.8025 293.136 65.8025Z" fill="white"/>
<path d="M513.631 205.141C513.631 205.141 520.486 200.759 524.31 197.472C528.133 194.185 533.274 196.699 533.274 196.699C533.274 196.699 542.041 197.15 541.448 203.595C540.855 210.039 513.631 205.141 513.631 205.141Z" fill="#DEE2F0"/>
<path d="M439.869 179.813C439.869 179.813 438.155 177.235 435.452 177.557C432.75 177.879 431.893 179.039 431.893 179.039C431.893 179.039 429.52 178.653 428.663 179.877C427.806 181.037 427.938 183.873 429.586 184.453C431.234 185.098 439.869 179.813 439.869 179.813Z" fill="#CACFE2"/>
<path d="M432.486 182.971C432.486 182.971 426.29 182.906 419.698 186.902C413.106 190.963 411.59 205.077 411.59 205.077H416.204L432.486 182.971Z" fill="#CACFE2"/>
<path d="M471.905 180.457C471.905 180.457 471.509 179.684 470.059 179.168C468.609 178.717 465.643 179.813 465.643 179.813L469.202 181.36L471.905 180.457Z" fill="#8798C5"/>
<path d="M510.005 206.044C510.005 206.044 508.621 195.023 497.613 186.193C486.605 177.364 468.477 180.522 468.477 180.522C468.477 180.522 475.333 183.809 479.09 189.738C482.847 195.667 485.682 206.108 485.682 206.108H510.005V206.044Z" fill="#DEE2F0"/>
<path d="M453.975 177.622C451.8 177.364 447.911 178.331 445.604 177.944C448.438 176.719 451.8 175.688 451.8 175.688C451.8 175.688 454.964 175.301 460.435 176.655C465.906 178.008 475.267 183.358 481.924 190.125C488.516 196.892 489.439 205.915 489.439 205.915L482.781 206.044C482.122 203.143 480.211 197.343 475.333 191.091C468.411 182.197 457.205 177.944 453.975 177.622Z" fill="#CACFE2"/>
<path d="M442.044 180.457C442.242 179.684 443.758 178.782 445.604 177.944C447.911 178.331 451.8 177.364 453.975 177.622C457.205 177.944 468.411 182.197 475.333 191.091C480.276 197.343 482.122 203.143 482.781 206.044L453.909 206.559C453.909 206.559 452.591 202.241 450.218 193.863C447.977 185.42 441.649 182.391 442.044 180.457Z" fill="#DEE2F0"/>
<path d="M444.945 176.397L441.715 176.59C441.715 176.59 442.44 170.661 444.154 167.052C445.867 163.443 447.713 158.222 454.305 158.48C457.139 158.609 458.853 159.64 459.842 160.736C459.249 161.187 458.524 161.767 457.864 162.476C456.151 164.152 446.527 172.401 446.527 172.401C446.527 172.401 447.647 171.692 450.745 170.146C453.118 168.985 458.787 165.505 461.358 163.894C461.358 163.894 462.808 164.667 463.665 165.956C461.16 167.503 457.337 169.823 455.228 171.048C452.723 172.466 447.911 174.721 444.945 176.397Z" fill="#DEE2F0"/>
<path d="M464.193 168.921C463.204 171.821 458.524 173.046 455.228 174.335C451.932 175.624 450.745 176.01 450.745 176.01L444.945 176.397C447.911 174.721 452.723 172.466 455.228 171.048C457.403 169.823 461.16 167.503 463.665 165.956C464.193 166.794 464.522 167.825 464.193 168.921Z" fill="#CACFE2"/>
<path d="M446.527 172.466C446.527 172.466 456.15 164.281 457.864 162.541C458.589 161.832 459.249 161.252 459.842 160.8C461.094 162.218 461.292 163.765 461.292 163.958C458.721 165.57 453.052 169.05 450.679 170.21C447.647 171.757 446.527 172.466 446.527 172.466Z" fill="#CACFE2"/>
<path d="M441.517 175.559C445.208 172.337 449.691 172.015 449.691 172.015C449.691 172.015 451.141 171.692 451.668 173.046C451.734 173.175 451.734 173.239 451.734 173.368C450.482 173.626 447.779 174.206 446.197 174.915C443.956 175.881 442.967 177.299 442.967 177.299C442.967 177.299 445.538 175.559 449.097 175.044C450.086 174.915 450.745 174.786 451.339 174.721H451.273C451.273 174.721 454.766 174.592 455.294 178.395C455.425 179.362 455.294 180.135 455.096 180.78C453.382 180.909 450.613 181.037 448.702 180.844C445.801 180.522 444.549 180.264 443.824 180.78C443.626 180.909 443.626 181.102 443.824 181.295C443.165 181.424 439.012 180.457 439.012 180.457C439.012 180.457 439.078 177.686 441.517 175.559Z" fill="#DEE2F0"/>
<path d="M443.099 177.299C443.099 177.299 444.088 175.946 446.329 174.915C447.977 174.206 450.614 173.626 451.866 173.368C452.064 174.206 451.602 174.593 451.405 174.721C450.877 174.786 450.152 174.915 449.163 175.044C445.604 175.559 443.099 177.299 443.099 177.299Z" fill="#CACFE2"/>
<path d="M443.89 180.78C444.615 180.264 445.867 180.522 448.768 180.844C450.679 181.037 453.382 180.909 455.162 180.78C454.569 182.52 452.986 182.971 452.986 182.971C452.986 182.971 453.184 184.067 451.932 184.582C450.679 185.098 448.636 184.84 447.252 183.422C445.801 182.069 444.549 181.166 443.89 181.295C443.758 181.102 443.692 180.909 443.89 180.78Z" fill="#CACFE2"/>
<path d="M447.252 191.865C449.031 195.538 449.163 203.401 449.163 206.301L413.634 204.497C413.634 204.497 417.918 196.119 423.521 188.836C429.124 181.617 437.891 179.942 439.803 179.813C441.583 179.684 443.89 181.231 444.219 181.489C443.297 181.166 442.703 181.037 442.703 181.037C442.703 181.037 445.076 187.353 447.252 191.865Z" fill="#DEE2F0"/>
<path d="M447.252 191.865C445.076 187.353 442.769 181.037 442.769 181.037C442.769 181.037 443.363 181.231 444.285 181.489L444.351 181.553C444.351 181.553 445.472 184.131 450.284 190.254C454.766 195.99 456.612 205.399 456.81 206.559L456.085 206.624L449.229 206.301C449.163 203.401 449.031 195.538 447.252 191.865Z" fill="#CACFE2"/>
<path fill-rule="evenodd" clip-rule="evenodd" d="M444.747 182.391C444.747 182.391 445.274 180.844 443.956 179.813C442.572 178.782 440.924 178.073 439.276 178.911C437.628 179.748 437.562 180.651 437.562 180.651L444.747 182.391Z" fill="#8798C5"/>
<path d="M432.486 206.688C432.816 206.559 439.869 204.819 439.21 198.503C438.55 192.187 432.42 192.123 430.443 192.509C428.531 192.896 426.619 195.023 426.619 195.023" stroke="#8798C5" stroke-width="3" stroke-miterlimit="10" stroke-linecap="round" stroke-linejoin="round"/>
<path d="M437.562 190.125C437.562 190.125 435.452 197.15 434.266 201.403C433.079 205.592 432.75 209.266 432.75 209.266" stroke="#8798C5" stroke-width="3" stroke-miterlimit="10" stroke-linecap="round" stroke-linejoin="round"/>
<path d="M432.75 188.771C432.75 188.771 430.64 195.796 429.454 200.05C428.267 204.239 427.938 207.913 427.938 207.913" stroke="#8798C5" stroke-width="3" stroke-miterlimit="10" stroke-linecap="round" stroke-linejoin="round"/>
<path d="M459.249 186.516C459.249 186.516 464.127 181.037 467.291 182.649C469.532 183.809 469.993 186.644 466.763 188.642C464.786 189.867 462.545 193.798 464.852 196.118C467.225 198.439 472.169 197.536 474.212 195.474C476.255 193.412 476.387 190.834 476.387 190.834" stroke="#8798C5" stroke-width="3" stroke-miterlimit="10" stroke-linecap="round" stroke-linejoin="round"/>
<path d="M475.267 197.923C475.267 197.923 472.037 193.347 468.807 189.094C465.577 184.84 461.688 181.424 461.688 181.424" stroke="#8798C5" stroke-width="3" stroke-miterlimit="10" stroke-linecap="round" stroke-linejoin="round"/>
<path d="M472.564 199.534C472.564 199.534 469.334 194.958 466.104 190.705C462.874 186.451 458.985 183.035 458.985 183.035" stroke="#8798C5" stroke-width="3" stroke-miterlimit="10" stroke-linecap="round" stroke-linejoin="round"/>
<path d="M18.4569 287.765C19.5116 285.703 15.8861 277.775 14.4359 263.79C12.9858 249.805 14.4359 242.715 14.4359 242.715C14.4359 242.715 37.2434 226.023 57.4802 219.191C77.7169 212.36 98.4151 207.719 129.133 204.432C159.85 201.146 205.202 200.372 205.202 200.372C205.202 200.372 206.059 201.274 209.684 202.95C210.871 203.466 212.98 203.981 215.287 204.432C229.13 203.466 237.106 197.665 237.106 197.665C237.106 197.665 303.485 167.181 326.556 156.418C329.193 155.193 328.402 154.42 326.886 153.84C325.37 153.26 321.612 153.067 321.612 153.067L328.138 150.36C328.138 150.36 331.5 150.166 333.412 150.746C334.137 150.94 335.06 151.584 335.851 152.229C336.246 152.293 336.378 152.486 336.378 152.486C336.378 152.486 338.356 154.549 338.817 155.193C339.213 155.838 338.751 156.611 338.751 156.611C338.751 156.611 330.643 160.8 311.923 170.597C300.057 176.848 286.808 184.389 279.491 188.578C279.03 188.836 278.634 189.094 278.239 189.416L246.994 204.368H276.459H282.194H294.388C294.388 204.368 408.162 204.368 449.163 203.272C479.485 202.434 586.47 202.241 586.47 202.241C586.47 202.241 618.704 202.563 634.656 206.43C639.27 207.526 645.928 216.42 646.851 220.287H613.76C613.101 220.287 612.507 220.351 611.848 220.48C610.002 220.867 605.982 221.963 601.631 224.605C595.632 228.214 596.819 228.021 596.819 228.021L647.048 228.859C646.916 229.89 646.719 230.985 646.521 231.952C645.203 238.397 646.719 245.1 650.871 250.32C652.915 252.834 654.497 255.992 654.497 259.601C654.497 269.204 654.299 271.846 648.103 284.22C644.412 291.568 638.677 294.21 634.194 295.112C633.337 296.401 577.307 300.719 557.071 300.462C555.752 300.462 554.17 300.462 552.324 300.526C553.445 296.015 554.104 291.245 554.104 286.412C554.104 280.353 553.181 274.424 551.402 268.881C549.622 263.339 547.051 258.118 543.821 253.414C537.295 244.004 528.133 236.528 517.256 232.081C510.005 229.116 502.095 227.441 493.79 227.441C487.593 227.441 481.529 228.343 475.86 230.083C470.191 231.823 464.852 234.337 460.04 237.495C450.416 243.875 442.769 252.834 438.221 263.468C435.189 270.557 433.475 278.291 433.475 286.412C433.475 292.47 434.398 298.399 436.177 303.942C436.573 305.231 437.034 306.52 437.562 307.809H436.705C436.705 307.809 436.705 307.809 434.134 306.584C431.563 305.36 413.7 303.04 413.7 303.04L242.709 306.584L182.328 306.197C185.361 299.173 187.008 291.439 187.008 283.383C187.008 277.324 186.086 271.395 184.306 265.852C182.526 260.31 179.955 255.089 176.725 250.385C170.199 240.975 161.037 233.499 150.16 229.052C142.91 226.087 134.999 224.412 126.694 224.412C120.497 224.412 114.433 225.314 108.764 227.054C103.095 228.794 97.7559 231.308 92.9439 234.466C83.3199 240.846 75.6735 249.805 71.1252 260.439C68.093 267.528 66.379 275.262 66.379 283.383C66.379 289.441 67.3019 295.37 69.0817 300.913C69.6749 302.782 70.4001 304.586 71.1252 306.391C69.8068 305.746 63.7424 302.975 54.1183 301.106C43.2419 299.044 15.952 297.755 15.952 297.755L13.7768 293.179C13.7109 293.179 17.3363 289.892 18.4569 287.765Z" fill="#EF7C5D"/>
<path d="M303.683 202.306C303.683 202.306 303.551 201.081 300.783 201.597C298.014 202.112 295.245 202.306 295.245 202.306C295.245 202.306 292.345 199.212 292.609 197.665C292.807 196.118 296.234 194.314 292.609 193.669C288.983 193.025 273.624 196.054 273.624 196.054L275.009 205.915H305.397L303.683 202.306Z" fill="#575785"/>
<path fill-rule="evenodd" clip-rule="evenodd" d="M389.903 173.884C387.398 174.786 376.192 181.553 376.192 181.553C376.192 181.553 377.115 179.426 376.786 176.848C376.588 175.688 376.588 175.301 374.478 175.108C375.204 173.239 377.906 157.707 377.906 157.707L385.948 158.351C386.014 158.351 387.069 167.696 389.903 173.884Z" fill="#E2A2A2"/>
<mask id="mask0" mask-type="alpha" maskUnits="userSpaceOnUse" x="363" y="150" width="20" height="27">
<path fill-rule="evenodd" clip-rule="evenodd" d="M382.125 162.089C383.114 169.308 378.697 175.108 373.16 176.139C368.282 177.042 366.502 173.11 364.92 164.861C363.009 154.549 362.679 151.713 369.732 150.553C369.864 150.553 369.93 150.489 370.062 150.489C375.467 149.78 381.202 155 382.125 162.089Z" fill="white"/>
</mask>
<g mask="url(#mask0)">
<path fill-rule="evenodd" clip-rule="evenodd" d="M382.125 162.089C383.114 169.308 380.543 174.592 375.006 175.624C370.919 176.59 365.777 170.79 364.195 162.476C362.284 152.164 362.745 151.713 369.732 150.489C369.864 150.489 369.93 150.424 370.062 150.424C375.467 149.78 381.202 155 382.125 162.089Z" fill="url(#paint0_radial)"/>
</g>
<path fill-rule="evenodd" clip-rule="evenodd" d="M379.027 163.83C379.027 163.83 377.906 164.087 377.049 163.121C376.258 162.154 376.06 160.543 376.456 159.318C376.786 158.287 377.906 156.74 377.379 156.353C376.786 155.967 375.401 156.869 374.478 155.58C373.49 154.291 374.215 153.84 373.819 153.518C373.424 153.195 371.974 154.227 368.414 154.227C367.887 154.227 367.425 154.356 366.964 154.549C366.436 154.807 365.711 155.064 364.986 155C363.932 154.936 362.481 153.26 362.02 151.326C361.559 149.393 362.35 147.653 363.668 147.137C364.525 146.815 366.239 147.137 367.425 146.493C368.875 145.719 369.403 144.495 372.039 143.528C374.413 142.69 376.39 142.819 378.697 142.561C380.938 142.304 382.125 141.917 384.037 142.497C385.816 143.012 387.332 143.979 388.519 146.622C389.31 148.491 388.849 150.166 388.914 150.94C388.98 152.035 389.903 152.229 390.233 153.453C390.562 154.678 390.365 155.516 390.694 156.353C391.024 157.127 391.353 158.222 391.024 159.64C390.628 161.252 389.574 161.509 389.508 162.218C389.442 162.927 389.639 163.636 389.046 164.732C388.255 166.021 387.069 167.181 385.421 166.988C384.234 166.794 383.443 163.056 383.443 163.056L379.027 163.83Z" fill="#423748"/>
<path fill-rule="evenodd" clip-rule="evenodd" d="M378.763 162.605C378.17 164.732 378.104 165.892 379.422 166.279C380.807 166.665 382.52 164.99 383.443 162.863C384.366 160.8 383.707 159.705 382.389 159.383C381.334 159.125 379.62 159.769 378.763 162.605Z" fill="#F4AAAE"/>
<path fill-rule="evenodd" clip-rule="evenodd" d="M391.749 177.557L390.101 172.788C390.101 172.788 384.63 173.046 379.95 174.657C375.335 176.268 375.204 176.913 375.204 176.913L376.588 180.264C376.588 180.264 380.213 178.524 384.696 177.75C389.244 176.977 391.749 177.557 391.749 177.557Z" fill="#EFEEED"/>
<path fill-rule="evenodd" clip-rule="evenodd" d="M319.305 191.994L314.559 190.576C314.559 190.576 312.384 189.545 309.681 188.062C306.979 186.58 301.705 184.582 301.705 184.582C301.705 184.582 299.992 183.744 298.805 185.227C297.619 186.773 295.971 190.06 295.971 190.06C295.971 190.06 295.773 191.607 297.091 192.445C298.41 193.283 299.926 193.669 299.926 193.669C299.926 193.669 299.135 191.478 299.266 190.705C299.398 189.931 300.189 188.449 302.233 189.738C304.276 191.027 306.781 194.443 306.781 194.443C306.781 194.443 307.704 196.183 310.802 196.505C313.9 196.827 319.24 197.536 319.24 197.536V191.994H319.305Z" fill="#F3A9AE"/>
<path fill-rule="evenodd" clip-rule="evenodd" d="M391.024 180.264C391.024 180.264 395.836 178.073 395.638 183.551C395.44 189.029 393.067 196.699 391.024 200.565C389.046 204.497 389.046 204.497 389.046 204.497H348.573L391.024 180.264Z" fill="#EFEEED"/>
<path fill-rule="evenodd" clip-rule="evenodd" d="M395.045 181.102C395.045 181.102 397.55 186.516 391.749 191.994C385.948 197.472 372.831 200.759 362.416 203.079C352.001 205.399 348.639 206.044 346.925 205.915C345.145 205.786 314.823 197.923 314.823 197.923C314.823 197.923 314.164 195.603 314.823 193.089C315.482 190.576 316.405 189.802 316.405 189.802L348.045 193.089C348.045 193.089 364.657 186.193 368.216 185.42C371.71 184.647 375.731 177.235 385.157 176.848C394.583 176.462 395.045 181.102 395.045 181.102Z" fill="white"/>
<path fill-rule="evenodd" clip-rule="evenodd" d="M308.231 211.844C309.352 211.457 309.945 210.297 309.616 209.202L303.156 190.383C302.76 189.287 301.574 188.707 300.453 189.029C299.332 189.416 298.739 190.576 299.069 191.672L305.529 210.491C305.858 211.586 307.111 212.166 308.231 211.844Z" fill="#575785"/>
<path fill-rule="evenodd" clip-rule="evenodd" d="M413.634 204.497L420.357 176.204C420.357 176.204 421.016 171.499 417.457 171.692C413.238 171.95 408.36 172.53 406.58 174.012C404.339 175.881 388.98 204.497 388.98 204.497H413.634Z" fill="#8798C5"/>
<path fill-rule="evenodd" clip-rule="evenodd" d="M419.105 169.759C419.105 169.759 421.807 170.146 422.994 167.31C424.115 164.474 424.84 156.805 424.84 156.805C424.84 156.805 423.126 154.162 420.819 154.291C418.512 154.42 412.975 155 412.975 155C412.975 155 410.536 155.902 409.547 159.125C408.558 162.412 406.844 168.083 406.844 168.083C406.844 168.083 406.119 171.563 409.679 171.048C412.975 170.532 419.105 169.759 419.105 169.759Z" fill="#8798C5"/>
<path d="M391.749 220.158C396.495 220.158 400.582 221.383 402.889 223.123H380.609C382.916 221.318 387.069 220.158 391.749 220.158Z" fill="#D1674E"/>
<path d="M391.749 232.468C386.673 232.468 382.323 231.114 380.147 229.052H403.35C401.241 231.114 396.825 232.468 391.749 232.468Z" fill="#D1674E"/>
<path d="M378.763 226.345C378.763 225.185 379.422 224.089 380.609 223.187H402.889C404.076 224.089 404.735 225.185 404.735 226.345C404.735 227.376 404.207 228.279 403.35 229.116H380.147C379.29 228.279 378.763 227.312 378.763 226.345Z" fill="#EF7C5D"/>
<path d="M601.631 224.669C605.982 222.027 610.003 220.931 611.848 220.545C612.442 220.416 613.101 220.351 613.76 220.351H646.851C647.444 222.994 647.444 225.958 647.048 228.923L596.819 228.085C596.819 228.085 595.632 228.279 601.631 224.669Z" fill="#E52D36"/>
<path d="M275.206 198.116L276.525 204.497H247.06L278.305 189.545C275.8 191.607 274.547 194.894 275.206 198.116Z" fill="#575785"/>
<path d="M192.809 291.825L430.377 285.574C430.377 285.574 403.548 274.037 380.675 274.94C357.801 275.906 192.809 291.825 192.809 291.825Z" fill="#F18971"/>
<path d="M451.725 296.12C446.246 273.431 460.616 250.694 483.823 245.336C507.029 239.979 530.284 254.029 535.763 276.718C541.243 299.408 526.873 322.144 503.666 327.502C480.46 332.86 457.205 318.809 451.725 296.12Z" fill="#8798C5"/>
<path d="M441.055 286.412C441.055 279.322 442.506 272.491 445.208 266.368C449.229 257.087 455.887 249.289 464.324 243.682C468.543 240.911 473.157 238.719 478.101 237.173C483.045 235.69 488.318 234.852 493.79 234.852C501.04 234.852 508.028 236.27 514.29 238.913C523.782 242.844 531.758 249.353 537.493 257.603C540.327 261.728 542.569 266.239 544.151 271.073C545.667 275.906 546.524 281.062 546.524 286.412C546.524 291.374 545.799 296.272 544.414 300.848C516.202 302.073 460.369 306.391 445.735 307.551C444.879 305.682 444.153 303.748 443.494 301.751C441.846 296.917 441.055 291.761 441.055 286.412Z" fill="#423748"/>
<path d="M451.725 296.12C446.246 273.431 460.616 250.694 483.823 245.336C507.029 239.979 530.284 254.029 535.763 276.718C541.243 299.408 526.873 322.144 503.666 327.502C480.46 332.86 457.205 318.809 451.725 296.12Z" fill="#8798C5"/>
<path d="M450.613 286.412H455.557C455.557 291.568 456.612 296.466 458.59 300.977C461.49 307.68 466.368 313.416 472.432 317.412C475.464 319.41 478.826 321.021 482.452 322.116C486.011 323.212 489.835 323.792 493.79 323.792C499.063 323.792 504.073 322.761 508.687 320.827C515.542 317.992 521.409 313.222 525.496 307.293C527.539 304.328 529.187 301.042 530.308 297.497C531.429 294.017 532.022 290.279 532.022 286.412C532.022 281.256 530.967 276.358 528.99 271.846C526.089 265.143 521.211 259.407 515.147 255.412C512.115 253.414 508.753 251.802 505.127 250.707C501.568 249.611 497.745 249.031 493.79 249.031C488.516 249.031 483.506 250.062 478.892 251.996C472.037 254.832 466.17 259.601 462.083 265.53C460.04 268.495 458.392 271.782 457.271 275.326C456.151 278.807 455.557 282.545 455.557 286.412H450.613H445.67C445.67 279.902 446.988 273.715 449.427 268.108C453.052 259.665 459.183 252.511 466.829 247.42C470.652 244.906 474.937 242.844 479.42 241.491C483.968 240.137 488.78 239.364 493.724 239.364C500.381 239.364 506.709 240.653 512.444 243.037C521.08 246.582 528.396 252.576 533.604 260.052C536.175 263.79 538.284 267.979 539.668 272.362C541.053 276.809 541.844 281.513 541.844 286.347C541.844 292.857 540.525 299.044 538.086 304.651C534.461 313.094 528.33 320.247 520.684 325.339C516.861 327.852 512.576 329.915 508.094 331.268C503.545 332.622 498.733 333.395 493.79 333.395C487.132 333.395 480.804 332.106 475.069 329.721C466.434 326.177 459.117 320.183 453.909 312.707C451.339 308.969 449.229 304.78 447.845 300.397C446.461 295.95 445.67 291.245 445.67 286.412H450.613Z" fill="#575785"/>
<path d="M507.896 260.825C508.094 260.439 508.621 260.245 509.016 260.439C510.005 260.954 511.851 261.921 513.499 263.081C515.015 264.177 516.333 265.595 517.058 266.432C517.388 266.819 517.322 267.464 516.861 267.721L500.579 278.291C500.118 278.613 499.524 278.098 499.788 277.647L507.896 260.825Z" fill="#575785"/>
<path d="M487.132 257.861C487 257.41 487.264 256.958 487.725 256.83C488.846 256.572 490.889 256.056 492.867 255.863C494.778 255.669 496.69 255.863 497.811 255.992C498.338 256.056 498.667 256.572 498.536 257.087L493.724 275.649C493.592 276.164 492.867 276.164 492.669 275.649L487.132 257.861Z" fill="#575785"/>
<path d="M469.861 268.301C469.466 268.044 469.4 267.528 469.664 267.141C470.323 266.239 471.575 264.628 472.96 263.21C474.278 261.857 475.926 260.825 476.849 260.245C477.31 259.988 477.903 260.116 478.167 260.632L486.473 277.969C486.736 278.484 486.143 278.936 485.682 278.613L469.861 268.301Z" fill="#575785"/>
<path d="M463.863 286.605C463.401 286.669 463.006 286.283 462.94 285.832C462.874 284.736 462.808 282.674 462.94 280.74C463.072 278.871 463.665 277.067 463.995 276.035C464.192 275.52 464.72 275.326 465.247 275.52L482.913 283.769C483.375 284.027 483.309 284.736 482.715 284.8L463.863 286.605Z" fill="#575785"/>
<path d="M470.191 305.231C469.861 305.553 469.334 305.553 469.005 305.231C468.213 304.393 466.829 302.911 465.709 301.299C464.654 299.753 463.863 298.012 463.467 296.981C463.27 296.466 463.599 295.95 464.127 295.821L483.111 291.245C483.638 291.116 484.034 291.761 483.638 292.148L470.191 305.231Z" fill="#575785"/>
<path d="M487.198 315.22C487.132 315.672 486.736 315.994 486.275 315.929C485.154 315.8 483.045 315.478 481.133 314.898C479.288 314.383 477.574 313.48 476.585 312.965C476.124 312.707 475.992 312.127 476.321 311.676L488.055 296.337C488.384 295.886 489.109 296.143 489.043 296.723L487.198 315.22Z" fill="#575785"/>
<path d="M507.237 312.256C507.5 312.642 507.369 313.158 506.973 313.416C505.984 313.996 504.204 315.027 502.359 315.8C500.645 316.509 498.733 316.896 497.613 317.089C497.085 317.154 496.624 316.767 496.558 316.252L495.635 297.175C495.635 296.659 496.294 296.401 496.624 296.852L507.237 312.256Z" fill="#575785"/>
<path d="M520.75 297.884C521.211 298.012 521.475 298.464 521.277 298.915C520.882 299.946 520.157 301.879 519.3 303.62C518.443 305.295 517.19 306.713 516.465 307.615C516.136 308.002 515.476 308.002 515.147 307.615L502.029 293.437C501.634 293.05 502.095 292.405 502.557 292.599L520.75 297.884Z" fill="#575785"/>
<path d="M521.673 277.389C522.134 277.195 522.596 277.453 522.793 277.84C523.189 278.871 523.914 280.805 524.309 282.738C524.705 284.543 524.705 286.476 524.705 287.572C524.705 288.087 524.178 288.474 523.65 288.41L504.336 285.574C503.809 285.509 503.677 284.8 504.205 284.543L521.673 277.389Z" fill="#575785"/>
<path d="M438.155 263.468C442.769 252.898 450.35 243.875 459.974 237.495C464.786 234.337 470.125 231.823 475.794 230.083C481.463 228.343 487.527 227.441 493.724 227.441C502.029 227.441 510.005 229.116 517.19 232.081C528.001 236.593 537.229 244.004 543.755 253.414C546.985 258.119 549.556 263.339 551.336 268.882C553.115 274.424 554.038 280.353 554.038 286.412C554.038 291.245 553.445 296.015 552.259 300.526C549.951 300.59 547.249 300.655 544.282 300.784C545.667 296.208 546.392 291.374 546.392 286.347C546.392 281.062 545.535 275.842 544.019 271.008C542.503 266.175 540.196 261.599 537.361 257.538C531.692 249.289 523.65 242.78 514.158 238.848C507.83 236.206 500.909 234.788 493.658 234.788C488.252 234.788 482.913 235.626 477.969 237.108C473.025 238.59 468.345 240.846 464.192 243.617C455.755 249.16 449.097 257.023 445.076 266.304C442.374 272.491 440.924 279.258 440.924 286.347C440.924 291.632 441.78 296.852 443.297 301.686C443.956 303.684 444.681 305.617 445.538 307.487C443.231 307.68 441.912 307.744 441.912 307.744H437.364C436.837 306.455 436.375 305.231 435.98 303.877C434.2 298.335 433.277 292.405 433.277 286.347C433.409 278.291 435.123 270.493 438.155 263.468Z" fill="#D1674E"/>
<path d="M185.624 232.146H222.275V237.108L198.017 237.624C195.776 237.688 193.534 237.044 191.557 235.884L185.624 232.146Z" fill="#575785"/>
<path d="M66.2473 283.383C66.2473 275.262 67.9611 267.464 70.9934 260.439C75.6076 249.869 83.1881 240.846 92.8121 234.466C97.6241 231.308 102.963 228.794 108.632 227.054C114.301 225.314 120.366 224.412 126.562 224.412C134.868 224.412 142.844 226.087 150.029 229.052C160.839 233.563 170.068 240.975 176.594 250.385C179.824 255.089 182.394 260.31 184.174 265.852C185.954 271.395 186.877 277.324 186.877 283.383C186.877 291.439 185.229 299.173 182.197 306.198L74.4211 305.553L71.1911 306.584C71.1911 306.584 71.1252 306.52 70.9275 306.455C70.1364 304.651 69.4773 302.846 68.884 300.977C67.1702 295.37 66.2473 289.441 66.2473 283.383Z" fill="#D1674E"/>
<path d="M83.5254 294.47C79.8103 271.44 95.8934 249.826 119.448 246.194C143.003 242.561 165.109 258.286 168.824 281.316C172.539 304.346 156.456 325.96 132.902 329.592C109.347 333.224 87.2406 317.5 83.5254 294.47Z" fill="#8798C5"/>
<path d="M73.6301 284.027C74.1574 276.938 76.2008 270.299 79.299 264.306C83.9791 255.347 91.296 248 100.063 243.102C104.48 240.653 109.292 238.784 114.301 237.624C119.377 236.464 124.716 236.077 130.122 236.464C137.373 236.979 144.162 238.977 150.292 242.006C159.455 246.582 166.97 253.736 171.979 262.308C174.484 266.626 176.396 271.331 177.582 276.229C178.769 281.191 179.164 286.412 178.769 291.696C178.373 296.659 177.253 301.428 175.539 305.94C147.326 305.102 91.296 305.295 76.5964 305.295C75.8713 303.362 75.278 301.364 74.8166 299.366C73.6301 294.532 73.2346 289.312 73.6301 284.027Z" fill="#423748"/>
<path d="M83.5254 294.47C79.8103 271.44 95.8934 249.826 119.448 246.194C143.003 242.561 165.109 258.286 168.824 281.316C172.539 304.346 156.456 325.96 132.902 329.592C109.347 333.224 87.2406 317.5 83.5254 294.47Z" fill="#8798C5"/>
<path d="M83.1222 284.736L88.0661 285.123C87.6706 290.279 88.3298 295.241 89.9118 299.817C92.2848 306.713 96.7013 312.771 102.436 317.218C105.337 319.474 108.566 321.279 112.06 322.632C115.554 323.985 119.311 324.823 123.266 325.146C128.54 325.532 133.615 324.888 138.295 323.341C145.349 321.021 151.545 316.703 156.093 311.096C158.4 308.26 160.246 305.102 161.63 301.686C163.015 298.27 163.871 294.597 164.201 290.73C164.597 285.574 163.937 280.611 162.355 276.035C159.982 269.139 155.566 263.081 149.831 258.634C146.931 256.378 143.701 254.574 140.207 253.22C136.713 251.867 132.956 251.029 129.001 250.707C123.728 250.32 118.652 250.965 113.972 252.511C106.919 254.832 100.722 259.15 96.174 264.757C93.8669 267.592 92.0211 270.75 90.6369 274.166C89.2526 277.582 88.3957 281.256 88.0661 285.123L83.1222 284.736L78.1784 284.349C78.7057 277.904 80.4855 271.782 83.3859 266.368C87.6706 258.183 94.3282 251.48 102.37 247.033C106.391 244.778 110.742 243.102 115.422 242.071C120.036 241.039 124.914 240.653 129.858 241.039C136.45 241.555 142.712 243.295 148.249 246.131C156.621 250.32 163.476 256.83 168.024 264.692C170.331 268.624 172.045 272.877 173.1 277.453C174.155 281.965 174.55 286.734 174.155 291.568C173.627 298.012 171.847 304.135 168.947 309.549C164.662 317.734 158.005 324.437 149.963 328.884C145.942 331.139 141.591 332.815 136.911 333.846C132.297 334.877 127.419 335.264 122.475 334.877C115.883 334.362 109.621 332.622 104.084 329.786C95.7125 325.597 88.8571 319.087 84.3088 311.225C82.0017 307.293 80.2878 303.039 79.2331 298.464C78.1784 293.952 77.7829 289.183 78.1784 284.349L83.1222 284.736Z" fill="#575785"/>
<path d="M142.25 263.468C142.514 263.081 143.041 262.952 143.437 263.146C144.426 263.726 146.14 264.821 147.722 266.11C149.172 267.335 150.358 268.817 151.018 269.719C151.347 270.17 151.215 270.751 150.754 271.008L133.681 280.353C133.22 280.611 132.692 280.096 132.956 279.644L142.25 263.468Z" fill="#575785"/>
<path d="M121.816 258.956C121.684 258.505 122.014 258.054 122.475 257.99C123.596 257.796 125.639 257.474 127.683 257.41C129.594 257.345 131.506 257.667 132.626 257.925C133.154 258.054 133.483 258.57 133.286 259.085L127.023 277.195C126.826 277.711 126.101 277.647 125.969 277.131L121.816 258.956Z" fill="#575785"/>
<path d="M103.689 268.044C103.293 267.786 103.227 267.206 103.557 266.884C104.282 266.046 105.666 264.499 107.182 263.21C108.632 261.985 110.28 261.019 111.335 260.503C111.796 260.245 112.39 260.503 112.587 260.954L119.509 278.807C119.706 279.322 119.113 279.709 118.652 279.387L103.689 268.044Z" fill="#575785"/>
<path d="M96.3717 285.896C95.9103 285.896 95.5148 285.509 95.5148 285.058C95.5148 283.963 95.5807 281.9 95.9103 279.967C96.2399 278.162 96.8991 276.358 97.3605 275.326C97.5582 274.811 98.1515 274.617 98.6129 274.94L115.554 284.478C116.015 284.736 115.818 285.445 115.29 285.445L96.3717 285.896Z" fill="#575785"/>
<path d="M101.184 304.908C100.854 305.231 100.261 305.166 99.9971 304.78C99.272 303.877 98.0196 302.266 97.0308 300.59C96.108 298.979 95.4488 297.175 95.1192 296.079C94.9874 295.563 95.317 295.048 95.8444 294.983L115.158 291.825C115.686 291.761 116.015 292.405 115.62 292.728L101.184 304.908Z" fill="#575785"/>
<path d="M117.399 316.123C117.333 316.574 116.872 316.896 116.411 316.767C115.29 316.509 113.247 316.058 111.401 315.414C109.621 314.769 107.973 313.738 107.05 313.094C106.589 312.771 106.523 312.191 106.853 311.805L119.707 297.368C120.036 296.981 120.761 297.304 120.629 297.819L117.399 316.123Z" fill="#575785"/>
<path d="M137.636 314.64C137.9 315.027 137.702 315.543 137.307 315.736C136.318 316.252 134.406 317.154 132.561 317.798C130.781 318.378 128.869 318.636 127.683 318.765C127.155 318.829 126.694 318.378 126.694 317.863L127.287 298.721C127.287 298.206 128.012 298.012 128.276 298.464L137.636 314.64Z" fill="#575785"/>
<path d="M152.204 301.364C152.665 301.557 152.863 302.008 152.665 302.459C152.204 303.491 151.347 305.36 150.292 307.035C149.304 308.582 147.985 310 147.128 310.773C146.733 311.16 146.14 311.096 145.81 310.709L133.813 295.563C133.483 295.112 133.945 294.532 134.406 294.726L152.204 301.364Z" fill="#575785"/>
<path d="M154.709 280.933C155.17 280.805 155.632 281.062 155.763 281.449C156.093 282.545 156.62 284.478 156.884 286.412C157.148 288.216 157.016 290.15 156.884 291.245C156.818 291.761 156.291 292.148 155.763 292.019L136.713 287.765C136.186 287.636 136.12 286.927 136.647 286.734L154.709 280.933Z" fill="#575785"/>
<path fill-rule="evenodd" clip-rule="evenodd" d="M658.518 255.734C658.518 255.734 607.761 256.636 605.256 255.734C602.686 254.832 595.896 248.387 598.203 247.742C600.576 247.098 658.518 246.904 658.518 246.904V255.734Z" fill="#F18971"/>
<path d="M57.4143 219.191C77.6511 212.295 98.3492 207.719 129.067 204.432C159.784 201.146 205.136 200.372 205.136 200.372C205.136 200.372 205.993 201.274 209.618 202.95C210.805 203.466 212.914 203.981 215.221 204.432C218.583 204.175 221.549 203.659 224.186 203.015C228.866 203.852 234.008 204.432 239.413 204.432C240.731 204.432 243.434 204.368 247.323 204.304L246.994 204.432H276.459H282.194H294.388C294.388 204.432 408.162 204.432 449.163 203.337C479.485 202.499 586.47 202.306 586.47 202.306C586.47 202.306 618.704 202.628 634.656 206.495C637.226 207.139 640.456 210.168 642.961 213.391C626.943 212.166 587.854 209.717 571.177 213.971C549.886 219.385 530.176 239.299 530.176 239.299C526.221 236.399 521.936 233.886 517.256 232.017C510.005 229.052 502.095 227.376 493.79 227.376C487.593 227.376 481.529 228.279 475.86 230.019C470.191 231.759 464.852 234.272 460.04 237.43C455.953 240.137 452.261 243.231 449.031 246.775C446.856 241.362 439.276 228.794 413.7 224.283C380.675 218.482 220.758 221.834 199.467 224.541C181.801 226.796 169.409 235.368 165.717 238.268C161.103 234.401 155.829 231.243 150.16 228.923C142.91 225.958 134.999 224.283 126.694 224.283C120.498 224.283 114.433 225.185 108.764 226.925C103.095 228.665 97.756 231.179 92.944 234.337C90.4391 236.012 88.066 237.882 85.8248 239.879C83.9791 235.755 79.1013 229.825 66.3791 227.505C53.9866 225.249 30.5199 236.27 14.1723 245.164C14.3701 243.489 14.5019 242.651 14.5019 242.651C14.5019 242.651 37.1776 226.087 57.4143 219.191Z" fill="#F18971"/>
<path fill-rule="evenodd" clip-rule="evenodd" d="M264.33 198.632L263.473 195.41C263.341 194.894 263.473 194.314 263.869 193.927C265.517 192.38 270.197 188.514 276.591 187.676C284.633 186.644 284.765 187.418 286.478 188.707C287.665 189.609 289.247 191.736 290.104 193.025C290.565 193.669 290.631 194.443 290.368 195.152C289.84 196.441 288.588 198.374 286.017 198.89C282.655 199.534 269.867 199.663 265.846 199.728C265.121 199.728 264.528 199.277 264.33 198.632Z" fill="#EF7C5D"/>
<path fill-rule="evenodd" clip-rule="evenodd" d="M293.334 194.765C293.136 194.701 277.052 193.798 268.944 194.765C260.836 195.732 259.057 195.861 259.057 195.861C259.057 195.861 264.462 189.287 265.187 188.771C265.912 188.256 277.184 185.162 277.184 185.162L290.433 185.549L293.334 194.765Z" fill="#F18971"/>
<path fill-rule="evenodd" clip-rule="evenodd" d="M25.2464 243.231C25.2464 243.231 31.9701 244.971 37.9027 243.231C43.8352 241.491 69.0158 227.57 78.0466 224.347C87.1432 221.189 96.899 218.676 91.8893 217.258C86.9455 215.84 63.281 222.349 50.4929 227.634C37.7049 232.919 25.2464 238.462 25.2464 240.846C25.2464 243.231 25.2464 243.231 25.2464 243.231Z" fill="#DEE2F0"/>
<path fill-rule="evenodd" clip-rule="evenodd" d="M42.1874 280.418C42.1874 280.418 42.6488 265.466 45.2196 261.534C47.7903 257.603 51.284 255.734 52.075 259.021C52.866 262.308 49.9657 269.204 48.054 274.166C46.1424 279.129 45.0218 281.385 43.5716 280.869C42.1874 280.418 42.1874 280.418 42.1874 280.418Z" fill="#656EA0"/>
<path d="M413.634 204.497C413.634 204.497 430.377 212.489 411.59 255.476C397.682 287.378 372.105 285.509 372.105 285.509L239.018 289.441C239.018 289.441 235.524 266.432 234.206 261.599C232.953 256.83 232.294 226.603 235.656 216.42C237.304 211.328 245.544 204.561 245.544 204.561" stroke="#D1674E" stroke-miterlimit="10"/>
<path d="M536.9 165.956C536.9 165.956 539.273 173.948 531.89 176.526C524.507 179.039 524.507 179.039 524.507 179.039C524.507 179.039 529.847 175.366 529.319 171.048C528.792 166.73 528.792 166.794 528.792 166.794L536.9 165.956Z" fill="#E9ECF5"/>
<path d="M515.476 176.719C515.476 176.719 520.157 183.68 526.946 179.813C533.67 175.946 533.67 175.946 533.67 175.946C533.67 175.946 527.342 177.557 524.375 174.335C521.409 171.177 521.409 171.177 521.409 171.177L515.476 176.719Z" fill="#CACFE2"/>
<path d="M673.349 286.025C673.349 286.025 665.703 282.351 668.669 275.326C671.636 268.301 671.701 268.301 671.701 268.301C671.701 268.301 670.91 274.682 674.536 277.131C678.161 279.58 678.161 279.58 678.161 279.58L673.349 286.025Z" fill="#E9ECF5"/>
<path d="M679.612 263.274C679.612 263.274 671.174 262.05 669.592 269.462C668.01 276.938 668.01 276.938 668.01 276.938C668.01 276.938 671.042 271.266 675.459 271.266C679.875 271.266 679.875 271.266 679.875 271.266L679.612 263.274Z" fill="#CACFE2"/>
<path d="M593.128 241.233C593.128 241.233 596.885 240.588 598.467 236.399C600.049 232.21 600.049 232.21 600.049 232.21L607.827 230.083C607.827 230.083 607.234 236.464 602.026 239.686C596.885 242.909 593.128 241.233 593.128 241.233Z" fill="#8798C5"/>
<path d="M603.872 238.268C603.872 238.268 596.753 244.713 586.206 245.229C575.659 245.68 573.682 243.102 573.682 243.102L578.098 235.884C578.098 235.884 584.69 239.428 593.655 239.364C602.62 239.299 603.872 238.268 603.872 238.268Z" fill="#CACFE2"/>
<path d="M760.163 244.197C760.163 244.197 757.79 247.098 759.438 251.287C761.152 255.412 761.152 255.412 761.152 255.412L756.801 262.179C756.801 262.179 752.912 257.023 754.56 251.222C756.208 245.422 760.163 244.197 760.163 244.197Z" fill="#8798C5"/>
<path d="M754.164 253.349C754.164 253.349 755.021 243.875 762.602 236.657C770.183 229.439 773.412 230.083 773.412 230.083L774.995 238.333C774.995 238.333 767.678 239.944 761.02 245.873C754.428 251.867 754.164 253.349 754.164 253.349Z" fill="#CACFE2"/>
<path d="M844.801 242.78C844.801 242.78 846.977 247.098 856.073 245.873C865.17 244.649 863.786 244.004 863.786 244.004C863.786 244.004 859.962 250.191 854.689 251.867C849.416 253.543 839.858 251.803 839.858 251.803L844.801 242.78Z" fill="#CACFE2"/>
<path d="M874.398 252.834C874.398 252.834 872.157 251.094 863.127 249.74C859.369 249.16 855.414 251.609 855.414 251.609C855.414 251.609 859.237 245.422 864.511 243.746C869.784 242.071 879.342 243.811 879.342 243.811L874.398 252.834Z" fill="#CACFE2"/>
<path d="M84.7702 119.746C90.3732 121.551 88.6593 118.78 94.4601 115.493C100.261 112.206 97.0968 113.817 102.766 113.43C108.435 113.044 106.655 120.262 114.235 118.522C121.816 116.782 114.433 110.595 117.465 106.276C120.564 102.023 121.025 106.212 128.671 108.726C136.318 111.175 140.141 104.794 148.447 100.218C151.611 98.4781 153.72 98.2848 155.104 98.9937C156.884 95.9002 160.246 93.8378 164.069 93.8378C164.926 93.8378 165.783 93.9667 166.574 94.1601C166.706 93.2578 167.299 90.9376 169.936 88.6174C176.066 83.3326 184.636 83.2682 190.568 85.5239C196.501 87.7796 199.335 92.9355 200.06 99.5738C200.06 99.5738 200.06 99.6382 200.126 99.6382C202.17 98.2203 204.675 97.3825 207.377 97.3825C212.651 97.3825 217.199 100.605 218.979 105.116C223.461 108.21 224.516 112.399 224.516 112.399C224.516 112.399 236.447 108.854 239.941 116.653C243.434 124.451 229.196 124.451 229.196 124.451C229.196 124.451 76.5964 129.22 74.0916 126.256C71.5867 123.291 79.1672 117.942 84.7702 119.746Z" fill="white"/>
<defs>
<radialGradient id="paint0_radial" cx="0" cy="0" r="1" gradientUnits="userSpaceOnUse" gradientTransform="translate(353.714 192.149) rotate(-54.308) scale(38.9129 39.2027)">
<stop stop-color="#FDE8E9"/>
<stop offset="1" stop-color="#F4A9AD"/>
</radialGradient>
</defs>
</svg>
