<svg width="145" height="148" viewBox="0 0 145 148" fill="none" xmlns="http://www.w3.org/2000/svg">
<g clip-path="url(#clip0)" filter="url(#filter0_d)">
<path d="M72.5 131.585C107.018 131.585 135 103.603 135 69.0851C135 34.5673 107.018 6.58511 72.5 6.58511C37.9822 6.58511 9.99997 34.5673 9.99997 69.0851C9.99997 103.603 37.9822 131.585 72.5 131.585Z" fill="#4E7FF0"/>
<path d="M91.4663 44.4457H44.2548C43.6173 44.4457 43.0058 44.6989 42.555 45.1497C42.1042 45.6006 41.851 46.212 41.851 46.8495V130.984C41.851 131.622 42.1042 132.233 42.555 132.684C43.0058 133.135 43.6173 133.388 44.2548 133.388H100.745C101.383 133.388 101.994 133.135 102.445 132.684C102.896 132.233 103.149 131.622 103.149 130.984V55.5394L91.4663 44.4457Z" fill="white"/>
<path d="M80.9135 58.2678H49.6635V61.8736H80.9135V58.2678Z" fill="#CCCCCC"/>
<path d="M83.3173 66.6813H49.6635V70.287H83.3173V66.6813Z" fill="#CCCCCC"/>
<path d="M72.5 75.0947H49.6635V78.7005H72.5V75.0947Z" fill="#CCCCCC"/>
<path d="M87.524 127.979C91.8387 127.979 95.3365 124.482 95.3365 120.167C95.3365 115.852 91.8387 112.354 87.524 112.354C83.2093 112.354 79.7115 115.852 79.7115 120.167C79.7115 124.482 83.2093 127.979 87.524 127.979Z" fill="#FE7F5F"/>
</g>
<defs>
<filter id="filter0_d" x="-3.05176e-05" y="0.585114" width="145" height="146.803" filterUnits="userSpaceOnUse" color-interpolation-filters="sRGB">
<feFlood flood-opacity="0" result="BackgroundImageFix"/>
<feColorMatrix in="SourceAlpha" type="matrix" values="0 0 0 0 0 0 0 0 0 0 0 0 0 0 0 0 0 0 127 0"/>
<feOffset dy="4"/>
<feGaussianBlur stdDeviation="5"/>
<feColorMatrix type="matrix" values="0 0 0 0 0 0 0 0 0 0 0 0 0 0 0 0 0 0 0.15 0"/>
<feBlend mode="normal" in2="BackgroundImageFix" result="effect1_dropShadow"/>
<feBlend mode="normal" in="SourceGraphic" in2="effect1_dropShadow" result="shape"/>
</filter>
<clipPath id="clip0">
<rect width="146" height="146" fill="white" transform="translate(9.99997 6.58511)"/>
</clipPath>
</defs>
</svg>
