<svg width="145" height="146" viewBox="0 0 145 146" fill="none" xmlns="http://www.w3.org/2000/svg">
<g clip-path="url(#clip0)" filter="url(#filter0_d)">
<path d="M72.5 131.585C107.018 131.585 135 103.603 135 69.0851C135 34.5673 107.018 6.58508 72.5 6.58508C37.9822 6.58508 10 34.5673 10 69.0851C10 103.603 37.9822 131.585 72.5 131.585Z" fill="#4E7FF0"/>
<path d="M58.0529 78.3639C71.3289 78.3639 82.0913 67.6016 82.0913 54.3255C82.0913 41.0494 71.3289 30.287 58.0529 30.287C44.7768 30.287 34.0144 41.0494 34.0144 54.3255C34.0144 67.6016 44.7768 78.3639 58.0529 78.3639Z" fill="white" stroke="#CCCCCC" stroke-width="3" stroke-miterlimit="10"/>
<path d="M58.7423 53.4825V49.7645C59.7103 49.9185 60.3703 50.6005 60.5463 51.5465H63.6483C63.3403 49.0385 61.4703 47.3225 58.7423 47.0365V45.1445H57.2683V46.9925C54.1003 47.2345 52.3183 49.2365 52.3183 51.6125C52.3183 53.8345 53.6603 55.2425 56.2123 55.7705L57.2683 55.9905V60.2145C56.1243 60.0385 55.2003 59.2905 54.9583 57.9045H51.8343C52.1643 60.8305 53.9463 62.7005 57.2683 62.9645V64.8565H58.7203V62.9865C62.2403 62.7445 64.0443 60.5885 64.0443 58.1465C64.0443 55.4405 62.2403 54.1425 59.7983 53.6805L58.7423 53.4825ZM59.0503 56.3205C60.1723 56.5625 60.8983 57.2005 60.8983 58.3225C60.8983 59.4445 59.9963 60.1925 58.7423 60.2585V56.2545L59.0503 56.3205ZM55.4643 51.4805C55.4643 50.4905 56.2123 49.8085 57.2683 49.7205V53.2185C56.0363 52.9545 55.4643 52.4705 55.4643 51.4805Z" fill="#FE7F5F"/>
<path d="M87.6442 108.304C100.92 108.304 111.683 97.5415 111.683 84.2654C111.683 70.9893 100.92 60.2269 87.6442 60.2269C74.3682 60.2269 63.6058 70.9893 63.6058 84.2654C63.6058 97.5415 74.3682 108.304 87.6442 108.304Z" fill="white" stroke="#CCCCCC" stroke-width="3" stroke-miterlimit="10"/>
<path d="M82.5289 77.2403V84.3683H80.5049V87.0303H82.5289V88.3724H80.5049V89.8904H82.5289V92.6404H85.6969V89.8904H89.7009V88.3724H85.6969V87.0303H88.8429C92.3629 87.0303 94.3649 85.2043 94.3649 82.1023C94.3649 79.0223 92.3629 77.2403 88.8429 77.2403H82.5289ZM85.6969 79.9023H88.3809C90.4269 79.9023 91.2189 80.6943 91.2189 82.1023C91.2189 83.5103 90.4269 84.3683 88.3809 84.3683H85.6969V79.9023Z" fill="#FE7F5F"/>
<path d="M84.988 40.5514V42.9553H92.1995C92.5183 42.9553 92.824 43.0819 93.0494 43.3073C93.2748 43.5327 93.4014 43.8384 93.4014 44.1572V50.1668H90.9976L94.6034 56.1764L98.2091 50.1668H95.8053V44.1572C95.8757 43.6673 95.831 43.1678 95.6746 42.6982C95.5183 42.2286 95.2547 41.8019 94.9048 41.4519C94.5548 41.102 94.1281 40.8384 93.6585 40.6821C93.1889 40.5258 92.6894 40.481 92.1995 40.5514H84.988Z" fill="#FE7F5F"/>
<path d="M60.9495 98.2437V95.8399H53.738C53.4192 95.8399 53.1135 95.7133 52.8881 95.4879C52.6627 95.2625 52.5361 94.9567 52.5361 94.638V88.6284H54.9399L51.3342 82.6187L47.7284 88.6284H50.1322V94.638C50.0618 95.1279 50.1066 95.6274 50.2629 96.097C50.4192 96.5666 50.6828 96.9933 51.0327 97.3432C51.3827 97.6932 51.8094 97.9568 52.279 98.1131C52.7486 98.2694 53.2481 98.3141 53.738 98.2437H60.9495Z" fill="#FE7F5F"/>
</g>
<defs>
<filter id="filter0_d" x="0" y="0.585083" width="145" height="145" filterUnits="userSpaceOnUse" color-interpolation-filters="sRGB">
<feFlood flood-opacity="0" result="BackgroundImageFix"/>
<feColorMatrix in="SourceAlpha" type="matrix" values="0 0 0 0 0 0 0 0 0 0 0 0 0 0 0 0 0 0 127 0"/>
<feOffset dy="4"/>
<feGaussianBlur stdDeviation="5"/>
<feColorMatrix type="matrix" values="0 0 0 0 0 0 0 0 0 0 0 0 0 0 0 0 0 0 0.15 0"/>
<feBlend mode="normal" in2="BackgroundImageFix" result="effect1_dropShadow"/>
<feBlend mode="normal" in="SourceGraphic" in2="effect1_dropShadow" result="shape"/>
</filter>
<clipPath id="clip0">
<rect width="146" height="146" fill="white" transform="translate(10 6.58508)"/>
</clipPath>
</defs>
</svg>
